<svg id="svg" version="1.1" xmlns="http://www.w3.org/2000/svg" xmlns:xlink="http://www.w3.org/1999/xlink" width="45" height="45" viewBox="0, 0, 400,400"><g id="svgg"><path id="path0" d="M142.408 145.875 L 139.968 148.250 139.954 200.875 L 139.941 253.500 136.804 253.500 L 133.667 253.500 133.667 238.583 L 133.667 223.667 126.083 223.667 C 121.912 223.667,118.444 223.667,118.375 223.667 C 118.306 223.667,118.250 226.686,118.250 230.376 L 118.251 237.083 117.667 237.626 C 117.346 237.924,116.558 238.440,115.917 238.773 C 115.275 239.106,114.375 239.655,113.917 239.994 C 113.458 240.332,112.511 240.931,111.811 241.323 C 111.112 241.716,110.154 242.329,109.683 242.685 L 108.827 243.333 80.441 243.333 L 52.055 243.333 51.944 282.958 C 51.817 328.423,51.834 373.188,51.982 382.414 L 52.083 388.745 61.899 366.747 C 74.220 339.136,87.952 308.278,96.718 288.500 C 106.595 266.216,109.025 260.771,109.185 260.569 C 109.287 260.440,130.180 260.357,182.289 260.277 C 222.418 260.216,256.399 260.117,257.803 260.057 L 260.355 259.947 260.303 243.515 L 260.250 227.083 259.793 226.306 C 258.286 223.742,258.986 223.886,247.375 223.756 L 237.667 223.647 237.667 230.917 C 237.667 236.688,237.710 238.161,237.875 238.061 C 237.990 237.992,239.755 236.319,241.799 234.343 C 243.842 232.367,245.568 230.731,245.634 230.708 C 245.700 230.684,246.700 231.622,247.858 232.791 L 249.962 234.917 239.076 245.417 L 228.190 255.917 225.956 255.917 L 223.722 255.917 212.861 245.428 C 206.888 239.660,202.000 234.896,202.000 234.842 C 202.000 234.681,206.076 230.667,206.240 230.667 C 206.323 230.667,207.522 231.772,208.904 233.123 C 210.286 234.474,212.073 236.216,212.875 236.994 L 214.333 238.410 214.333 231.038 L 214.333 223.667 185.667 223.667 L 157.000 223.667 157.000 238.583 L 157.000 253.500 153.833 253.500 L 150.667 253.500 150.665 200.875 L 150.664 148.250 148.178 145.875 C 146.318 144.097,145.587 143.500,145.270 143.500 C 144.952 143.500,144.247 144.085,142.408 145.875 M211.542 221.290 C 212.069 221.323,212.931 221.323,213.458 221.290 C 213.985 221.257,213.554 221.230,212.500 221.230 C 211.446 221.230,211.015 221.257,211.542 221.290 M242.280 221.292 C 244.863 221.317,249.138 221.317,251.780 221.292 C 254.422 221.266,252.308 221.245,247.083 221.245 C 241.858 221.245,239.697 221.266,242.280 221.292 M189.964 262.902 C 138.620 263.131,110.790 263.312,110.686 263.419 C 110.320 263.797,52.845 392.904,53.000 393.000 C 53.152 393.094,73.100 393.207,171.583 393.672 C 211.380 393.860,241.681 393.872,241.953 393.699 C 242.288 393.487,270.382 334.753,284.541 304.667 C 290.831 291.301,302.139 267.019,303.771 263.375 L 304.162 262.500 286.623 262.525 C 276.976 262.538,233.480 262.708,189.964 262.902 M55.471 395.625 C 58.709 395.650,63.959 395.650,67.137 395.625 C 70.316 395.600,67.667 395.579,61.250 395.579 C 54.833 395.579,52.233 395.600,55.471 395.625 " stroke="none" fill="#f9cf5c" fill-rule="evenodd"></path><path id="path1" d="M211.167 0.270 C 190.573 3.047,171.867 15.054,160.980 32.484 C 159.699 34.536,160.102 34.415,156.667 33.780 C 148.918 32.347,139.454 32.280,131.614 33.603 C 107.057 37.747,86.252 54.541,76.820 77.833 L 75.706 80.583 72.978 80.685 C 48.072 81.609,26.760 100.566,21.845 126.167 C 21.020 130.464,20.922 131.661,20.922 137.500 C 20.922 166.667,40.946 190.333,68.750 194.029 C 69.923 194.184,72.442 194.246,77.250 194.236 C 81.008 194.229,95.240 194.210,108.875 194.195 L 133.667 194.167 133.667 188.091 L 133.667 182.015 103.125 181.953 C 70.060 181.886,71.185 181.916,66.896 180.987 C 43.631 175.947,29.019 151.717,34.439 127.167 C 38.303 109.664,52.733 95.787,69.333 93.608 C 71.090 93.378,74.597 92.359,74.833 92.011 C 74.879 91.943,75.554 91.545,76.333 91.127 C 77.112 90.708,78.012 90.224,78.333 90.050 C 80.022 89.139,83.250 86.695,85.727 84.452 C 88.881 81.597,88.597 81.950,89.904 79.238 C 99.757 58.786,121.425 44.675,141.667 45.530 C 147.494 45.776,155.024 45.346,159.810 44.494 L 161.703 44.157 166.310 45.812 C 192.183 55.103,203.831 56.449,219.583 51.971 C 227.536 49.710,230.506 49.187,236.167 49.052 C 240.323 48.952,240.667 48.857,240.667 47.811 C 240.667 46.799,240.255 46.667,237.094 46.667 C 230.986 46.667,227.476 47.271,217.912 49.969 C 209.456 52.354,204.279 52.708,195.750 51.487 C 188.530 50.453,176.305 47.072,166.673 43.445 L 165.596 43.040 166.840 42.417 C 169.347 41.162,171.631 39.117,173.417 36.530 C 189.226 13.622,221.362 5.547,247.132 18.007 C 256.941 22.749,266.962 31.747,271.131 39.555 C 272.510 42.136,280.884 46.836,286.833 48.367 C 289.000 48.925,289.175 48.934,294.333 48.752 C 321.869 47.784,344.702 67.984,344.723 93.333 C 344.728 98.765,344.603 104.048,344.464 104.264 C 344.331 104.471,345.406 108.772,346.086 110.750 C 347.298 114.278,349.647 117.610,352.583 119.965 C 375.908 138.675,368.973 170.520,339.184 181.494 C 330.180 184.811,317.819 185.654,310.083 183.478 C 304.095 181.794,305.107 181.835,268.962 181.834 L 237.675 181.833 237.612 179.042 C 237.578 177.506,237.576 178.156,237.608 180.485 C 237.640 182.815,237.667 186.845,237.667 189.442 L 237.667 194.163 269.125 194.207 L 300.583 194.250 302.730 194.873 C 315.463 198.570,331.570 197.812,344.457 192.910 C 384.093 177.832,391.223 131.326,357.480 107.959 C 356.070 106.983,355.979 106.885,356.050 106.417 C 356.092 106.142,356.318 104.829,356.552 103.500 C 362.241 71.252,339.141 41.531,304.583 36.636 C 299.533 35.921,287.481 36.190,284.500 37.085 C 284.323 37.138,283.915 36.563,283.108 35.122 C 272.571 16.319,252.807 3.064,231.116 0.255 C 228.420 -0.095,213.788 -0.083,211.167 0.270 M90.576 99.076 C 89.764 99.888,90.664 101.116,94.333 104.203 C 102.401 110.990,111.127 113.735,124.667 113.745 C 132.189 113.751,134.574 113.558,147.333 111.914 C 172.393 108.686,183.134 109.107,194.167 113.750 C 194.737 113.990,195.230 114.159,195.262 114.126 C 195.295 114.094,195.508 113.647,195.734 113.135 L 196.146 112.203 194.032 111.369 C 182.555 106.843,172.031 106.436,147.833 109.585 C 145.404 109.901,141.804 110.347,139.833 110.575 C 116.208 113.313,103.884 110.618,93.434 100.431 C 91.426 98.474,91.258 98.394,90.576 99.076 M142.409 137.708 L 141.750 138.417 142.458 137.758 C 143.117 137.145,143.243 137.000,143.117 137.000 C 143.090 137.000,142.771 137.319,142.409 137.708 M237.580 155.917 C 237.580 165.725,237.600 169.713,237.625 164.779 C 237.650 159.845,237.649 151.820,237.625 146.946 C 237.600 142.071,237.580 146.108,237.580 155.917 M220.582 175.250 C 220.582 195.600,220.601 203.900,220.625 193.695 C 220.649 183.490,220.649 166.840,220.625 156.695 C 220.601 146.550,220.582 154.900,220.582 175.250 M231.414 156.000 C 231.414 165.762,231.434 169.756,231.458 164.875 C 231.483 159.994,231.483 152.006,231.458 147.125 C 231.434 142.244,231.414 146.237,231.414 156.000 M150.250 139.833 C 150.701 140.292,151.108 140.667,151.154 140.667 C 151.200 140.667,150.868 140.292,150.417 139.833 C 149.965 139.375,149.558 139.000,149.513 139.000 C 149.467 139.000,149.799 139.375,150.250 139.833 M137.744 142.208 L 136.917 143.083 137.792 142.256 C 138.605 141.488,138.743 141.333,138.619 141.333 C 138.592 141.333,138.199 141.727,137.744 142.208 M154.917 144.333 C 155.368 144.792,155.775 145.167,155.821 145.167 C 155.867 145.167,155.535 144.792,155.083 144.333 C 154.632 143.875,154.225 143.500,154.179 143.500 C 154.133 143.500,154.465 143.875,154.917 144.333 M147.750 145.500 C 148.387 146.142,148.945 146.667,148.991 146.667 C 149.037 146.667,148.553 146.142,147.917 145.500 C 147.280 144.858,146.721 144.333,146.676 144.333 C 146.630 144.333,147.113 144.858,147.750 145.500 M133.000 146.750 C 132.595 147.162,132.301 147.500,132.347 147.500 C 132.393 147.500,132.762 147.162,133.167 146.750 C 133.572 146.337,133.865 146.000,133.819 146.000 C 133.774 146.000,133.405 146.337,133.000 146.750 M140.409 147.708 L 139.750 148.417 140.458 147.758 C 141.117 147.145,141.243 147.000,141.117 147.000 C 141.090 147.000,140.771 147.319,140.409 147.708 M159.583 148.833 C 160.035 149.292,160.442 149.667,160.487 149.667 C 160.533 149.667,160.201 149.292,159.750 148.833 C 159.299 148.375,158.892 148.000,158.846 148.000 C 158.800 148.000,159.132 148.375,159.583 148.833 M128.242 151.375 L 127.583 152.083 128.292 151.425 C 128.681 151.062,129.000 150.743,129.000 150.716 C 129.000 150.590,128.855 150.716,128.242 151.375 M164.326 153.375 C 164.735 153.810,165.091 154.167,165.118 154.167 C 165.243 154.167,165.111 154.017,164.375 153.326 L 163.583 152.583 164.326 153.375 M123.500 155.917 C 123.095 156.329,122.801 156.667,122.847 156.667 C 122.893 156.667,123.262 156.329,123.667 155.917 C 124.072 155.504,124.365 155.167,124.319 155.167 C 124.274 155.167,123.905 155.504,123.500 155.917 M156.911 164.917 C 156.911 169.775,156.932 171.738,156.958 169.280 C 156.984 166.821,156.984 162.846,156.958 160.447 C 156.932 158.047,156.911 160.058,156.911 164.917 M159.250 156.833 C 159.608 157.200,159.938 157.500,159.984 157.500 C 160.030 157.500,159.775 157.200,159.417 156.833 C 159.059 156.467,158.728 156.167,158.682 156.167 C 158.637 156.167,158.892 156.467,159.250 156.833 M168.797 157.705 L 169.169 158.076 167.043 160.247 L 164.917 162.417 167.121 160.256 L 169.325 158.096 168.967 157.715 C 168.770 157.505,168.567 157.333,168.517 157.333 C 168.467 157.333,168.593 157.501,168.797 157.705 M129.075 158.875 L 128.417 159.583 129.125 158.925 C 129.515 158.562,129.833 158.243,129.833 158.216 C 129.833 158.090,129.688 158.216,129.075 158.875 M163.917 161.333 C 164.275 161.700,164.605 162.000,164.651 162.000 C 164.697 162.000,164.441 161.700,164.083 161.333 C 163.725 160.967,163.395 160.667,163.349 160.667 C 163.303 160.667,163.559 160.967,163.917 161.333 M156.910 184.000 C 156.910 188.354,156.932 190.135,156.958 187.958 C 156.985 185.781,156.985 182.219,156.958 180.042 C 156.932 177.865,156.910 179.646,156.910 184.000 M231.415 210.333 C 231.415 229.171,231.435 236.877,231.458 227.458 C 231.482 218.040,231.482 202.627,231.458 193.208 C 231.435 183.790,231.415 191.496,231.415 210.333 M220.565 235.667 C 220.565 236.904,220.592 237.410,220.624 236.792 C 220.656 236.173,220.656 235.160,220.624 234.542 C 220.592 233.923,220.565 234.429,220.565 235.667 M222.250 246.333 C 222.608 246.700,222.938 247.000,222.984 247.000 C 223.030 247.000,222.775 246.700,222.417 246.333 C 222.059 245.967,221.728 245.667,221.682 245.667 C 221.637 245.667,221.892 245.967,222.250 246.333 M226.824 248.958 L 226.250 249.583 226.875 249.009 C 227.457 248.474,227.577 248.333,227.449 248.333 C 227.422 248.333,227.140 248.615,226.824 248.958 " stroke="none" fill="#747474" fill-rule="evenodd"></path><path id="path2" d="M132.290 147.537 L 121.347 158.083 123.463 160.208 L 125.579 162.333 127.664 160.291 C 128.811 159.168,130.640 157.387,131.727 156.333 L 133.705 154.417 133.646 183.250 C 133.614 199.108,133.606 221.402,133.627 232.792 L 133.667 253.500 136.750 253.500 L 139.833 253.500 139.838 200.875 L 139.842 148.250 142.406 145.792 C 143.964 144.299,145.102 143.333,145.305 143.333 C 145.509 143.333,146.644 144.309,148.232 145.847 L 150.825 148.361 150.788 200.931 L 150.750 253.500 153.764 253.500 L 156.778 253.500 156.884 229.375 C 156.942 216.106,156.952 194.338,156.905 181.000 C 156.858 167.662,156.879 156.279,156.952 155.703 L 157.083 154.656 160.996 158.411 C 163.147 160.477,164.948 162.167,164.998 162.167 C 165.048 162.167,166.012 161.241,167.141 160.109 L 169.193 158.052 158.323 147.568 L 147.453 137.083 145.342 137.037 L 143.232 136.991 132.290 147.537 M214.292 166.208 C 214.269 181.631,214.280 204.185,214.317 216.329 L 214.385 238.407 213.567 237.703 C 213.118 237.316,211.287 235.578,209.500 233.841 L 206.250 230.683 204.154 232.769 L 202.057 234.855 204.320 237.074 C 205.565 238.295,210.483 243.052,215.249 247.647 L 223.915 256.000 225.966 256.000 L 228.017 256.000 237.717 246.643 C 243.052 241.496,247.979 236.734,248.666 236.059 L 249.915 234.833 247.811 232.729 L 245.708 230.626 241.732 234.469 C 239.545 236.582,237.724 238.279,237.684 238.239 C 237.644 238.200,237.599 222.586,237.584 203.542 C 237.568 184.498,237.543 161.998,237.528 153.542 L 237.500 138.167 234.458 138.167 L 231.417 138.167 231.459 191.289 L 231.501 244.412 228.961 246.956 C 225.790 250.131,226.284 250.123,223.064 247.063 L 220.500 244.625 220.500 191.396 L 220.500 138.167 217.417 138.167 L 214.333 138.167 214.292 166.208 " stroke="none" fill="#060606" fill-rule="evenodd"></path><path id="path3" d="M217.000 12.431 C 216.679 12.467,215.592 12.579,214.583 12.679 C 198.092 14.322,183.263 23.092,173.167 37.174 C 171.417 39.614,168.988 41.694,166.713 42.700 L 165.938 43.043 166.987 43.437 C 175.717 46.719,186.914 49.900,193.910 51.085 C 203.359 52.686,209.206 52.334,218.917 49.583 C 227.455 47.163,231.372 46.506,237.284 46.502 C 240.324 46.500,241.173 46.919,240.692 48.185 C 240.376 49.016,240.167 49.068,237.023 49.113 C 231.131 49.197,227.615 49.792,219.888 52.010 C 203.899 56.601,191.986 55.230,165.953 45.803 L 161.823 44.307 159.870 44.652 C 154.984 45.515,147.518 45.944,141.667 45.697 C 121.408 44.842,99.197 59.453,89.836 79.794 C 89.013 81.583,88.531 82.182,86.298 84.194 C 84.171 86.111,81.937 87.893,79.522 89.600 C 79.305 89.753,78.255 90.329,77.189 90.879 C 76.122 91.429,75.131 91.981,74.986 92.106 C 74.436 92.582,71.300 93.521,69.451 93.764 C 56.653 95.445,44.692 104.268,38.438 116.640 C 25.904 141.436,38.138 172.116,63.697 179.984 C 69.533 181.780,68.105 181.715,103.125 181.786 L 133.667 181.849 133.667 168.221 L 133.667 154.592 132.542 155.676 C 131.923 156.273,130.129 158.014,128.555 159.547 C 126.981 161.079,125.630 162.333,125.552 162.333 C 125.321 162.333,121.288 158.218,121.355 158.050 C 121.389 157.965,126.329 153.154,132.333 147.360 L 143.249 136.824 145.342 136.870 L 147.435 136.917 158.389 147.493 L 169.342 158.070 167.215 160.202 C 166.044 161.375,165.032 162.316,164.965 162.292 C 164.898 162.269,163.078 160.538,160.921 158.445 L 157.000 154.640 157.000 174.404 L 157.000 194.167 185.667 194.167 L 214.333 194.167 214.333 166.163 L 214.333 138.159 217.458 138.205 L 220.583 138.250 220.625 191.445 L 220.667 244.640 223.122 246.986 C 226.223 249.951,225.772 249.957,228.880 246.903 L 231.344 244.482 231.333 209.199 C 231.327 189.794,231.325 165.873,231.328 156.042 L 231.333 138.167 234.500 138.167 L 237.667 138.167 237.667 159.917 L 237.667 181.667 268.958 181.667 C 304.979 181.668,304.120 181.634,309.917 183.267 C 316.363 185.083,326.726 184.864,334.599 182.745 C 367.258 173.956,377.056 140.452,352.833 120.392 C 349.341 117.500,347.286 114.710,346.039 111.167 C 345.320 109.123,344.131 104.359,344.280 104.120 C 344.435 103.872,344.565 98.666,344.552 93.250 C 344.487 67.091,319.729 46.497,291.362 49.005 L 289.417 49.177 286.833 48.527 C 280.281 46.878,272.642 42.488,270.768 39.295 C 263.293 26.558,248.194 16.328,232.466 13.345 C 228.443 12.582,220.062 12.087,217.000 12.431 M93.660 100.387 C 105.145 111.480,116.913 113.442,147.833 109.419 C 168.090 106.783,177.847 106.703,187.620 109.095 C 190.359 109.765,195.715 111.618,196.313 112.102 C 196.443 112.208,195.417 114.333,195.236 114.333 C 195.131 114.333,194.492 114.104,193.815 113.824 C 182.741 109.248,172.348 108.858,147.333 112.081 C 134.574 113.725,132.189 113.918,124.667 113.912 C 109.834 113.901,100.809 110.697,91.898 102.279 C 90.189 100.666,89.851 100.096,90.158 99.354 C 90.693 98.064,91.501 98.302,93.660 100.387 " stroke="none" fill="#fbfbfb" fill-rule="evenodd"></path><path id="path4" d="M54.553 221.307 C 51.659 222.282,49.762 224.080,49.591 226.011 C 49.464 227.438,49.374 395.264,49.500 395.386 C 49.546 395.430,55.696 395.505,63.167 395.553 C 70.637 395.601,88.675 395.719,103.250 395.815 C 165.208 396.225,239.885 396.452,242.417 396.238 L 243.750 396.125 253.624 375.521 C 265.148 351.472,270.786 339.654,278.998 322.333 C 282.279 315.412,289.443 300.487,294.918 289.167 C 300.394 277.846,304.877 268.490,304.881 268.375 C 304.885 268.260,304.938 268.167,304.997 268.167 C 305.139 268.167,305.921 266.787,305.872 266.625 C 305.851 266.556,305.913 266.500,306.010 266.500 C 306.107 266.500,306.140 266.425,306.083 266.333 C 306.027 266.242,306.048 266.167,306.132 266.167 C 306.423 266.167,306.877 264.403,306.959 262.952 L 307.041 261.487 306.312 260.745 L 305.583 260.003 296.736 260.001 C 291.870 260.001,282.372 259.950,275.630 259.889 L 263.372 259.779 263.270 252.764 C 263.215 248.906,263.107 241.475,263.030 236.250 L 262.890 226.750 262.452 225.623 C 261.710 223.715,260.852 222.680,259.220 221.724 L 258.470 221.284 247.985 221.267 L 237.500 221.250 237.539 227.417 L 237.578 233.583 237.625 228.615 L 237.672 223.648 247.377 223.756 C 258.986 223.886,258.286 223.742,259.793 226.306 L 260.250 227.083 260.303 243.515 L 260.355 259.947 257.803 260.057 C 256.399 260.117,222.418 260.216,182.289 260.277 C 130.180 260.357,109.287 260.440,109.185 260.569 C 109.025 260.771,106.595 266.216,96.718 288.500 C 87.952 308.278,74.220 339.136,61.899 366.747 L 52.083 388.745 51.982 382.414 C 51.834 373.188,51.817 328.423,51.944 282.958 L 52.055 243.333 80.441 243.333 L 108.827 243.333 109.683 242.685 C 110.154 242.329,111.112 241.716,111.811 241.323 C 112.511 240.931,113.458 240.332,113.917 239.994 C 114.375 239.655,115.275 239.106,115.917 238.773 C 116.558 238.440,117.346 237.924,117.667 237.626 L 118.251 237.083 118.250 230.369 L 118.250 223.654 125.958 223.664 L 133.667 223.673 133.667 222.336 L 133.667 221.000 95.708 220.973 C 74.831 220.959,57.326 220.928,56.809 220.906 C 56.144 220.877,55.481 220.995,54.553 221.307 M156.874 237.375 L 156.915 253.583 156.958 238.625 L 157.002 223.667 185.668 223.667 L 214.333 223.667 214.333 222.526 L 214.333 221.386 211.557 221.276 C 210.030 221.216,197.092 221.167,182.807 221.167 L 156.833 221.167 156.874 237.375 M203.997 232.792 L 201.917 234.917 204.042 232.836 C 206.016 230.903,206.242 230.667,206.122 230.667 C 206.098 230.667,205.142 231.623,203.997 232.792 M207.750 232.167 C 208.479 232.900,209.113 233.500,209.159 233.500 C 209.205 233.500,208.646 232.900,207.917 232.167 C 207.188 231.433,206.554 230.833,206.508 230.833 C 206.462 230.833,207.021 231.433,207.750 232.167 M241.495 234.625 L 240.417 235.750 241.542 234.671 C 242.587 233.670,242.743 233.500,242.620 233.500 C 242.595 233.500,242.088 234.006,241.495 234.625 M203.583 236.500 C 204.312 237.233,204.946 237.833,204.992 237.833 C 205.038 237.833,204.479 237.233,203.750 236.500 C 203.021 235.767,202.387 235.167,202.341 235.167 C 202.295 235.167,202.854 235.767,203.583 236.500 M212.333 236.583 C 212.924 237.179,213.445 237.667,213.490 237.667 C 213.536 237.667,213.091 237.179,212.500 236.583 C 211.909 235.987,211.389 235.500,211.343 235.500 C 211.297 235.500,211.743 235.987,212.333 236.583 M245.833 238.750 C 245.150 239.438,244.629 240.000,244.675 240.000 C 244.721 240.000,245.317 239.438,246.000 238.750 C 246.683 238.063,247.204 237.500,247.158 237.500 C 247.112 237.500,246.516 238.063,245.833 238.750 M207.333 240.046 C 207.333 240.071,207.915 240.652,208.625 241.338 L 209.917 242.583 208.671 241.292 C 207.514 240.092,207.333 239.924,207.333 240.046 M240.913 243.542 L 239.583 244.917 240.958 243.587 C 242.235 242.353,242.409 242.167,242.288 242.167 C 242.263 242.167,241.644 242.785,240.913 243.542 M213.417 246.000 C 214.146 246.733,214.780 247.333,214.826 247.333 C 214.871 247.333,214.312 246.733,213.583 246.000 C 212.854 245.267,212.220 244.667,212.174 244.667 C 212.129 244.667,212.688 245.267,213.417 246.000 M236.163 248.125 L 234.750 249.583 236.208 248.170 C 237.563 246.858,237.743 246.667,237.621 246.667 C 237.596 246.667,236.940 247.323,236.163 248.125 M218.250 250.667 C 218.979 251.400,219.613 252.000,219.659 252.000 C 219.705 252.000,219.146 251.400,218.417 250.667 C 217.688 249.933,217.054 249.333,217.008 249.333 C 216.962 249.333,217.521 249.933,218.250 250.667 M231.247 252.875 L 229.750 254.417 231.292 252.920 C 232.140 252.097,232.833 251.403,232.833 251.378 C 232.833 251.257,232.636 251.443,231.247 252.875 M222.667 254.917 C 223.257 255.512,223.778 256.000,223.824 256.000 C 223.870 256.000,223.424 255.512,222.833 254.917 C 222.243 254.321,221.722 253.833,221.676 253.833 C 221.630 253.833,222.076 254.321,222.667 254.917 M303.771 263.375 C 302.139 267.019,290.831 291.301,284.541 304.667 C 270.382 334.753,242.288 393.487,241.953 393.699 C 241.681 393.872,211.380 393.860,171.583 393.672 C 73.100 393.207,53.152 393.094,53.000 393.000 C 52.845 392.904,110.320 263.797,110.686 263.419 C 110.838 263.262,244.210 262.584,286.623 262.525 L 304.162 262.500 303.771 263.375 " stroke="none" fill="#9b730c" fill-rule="evenodd"></path><path id="path5" d="M219.366 12.291 C 220.346 12.320,221.996 12.320,223.032 12.291 C 224.069 12.262,223.267 12.238,221.250 12.238 C 219.233 12.238,218.385 12.262,219.366 12.291 M215.877 12.453 C 216.131 12.491,216.506 12.490,216.711 12.451 C 216.916 12.411,216.708 12.380,216.250 12.381 C 215.792 12.382,215.624 12.415,215.877 12.453 M225.877 12.453 C 226.131 12.491,226.506 12.490,226.711 12.451 C 226.916 12.411,226.708 12.380,226.250 12.381 C 225.792 12.382,225.624 12.415,225.877 12.453 M214.208 12.615 C 214.369 12.657,214.631 12.657,214.792 12.615 C 214.952 12.573,214.821 12.539,214.500 12.539 C 214.179 12.539,214.048 12.573,214.208 12.615 M227.708 12.615 C 227.869 12.657,228.131 12.657,228.292 12.615 C 228.452 12.573,228.321 12.539,228.000 12.539 C 227.679 12.539,227.548 12.573,227.708 12.615 M156.042 45.115 C 156.202 45.157,156.465 45.157,156.625 45.115 C 156.785 45.073,156.654 45.039,156.333 45.039 C 156.012 45.039,155.881 45.073,156.042 45.115 M154.460 45.285 C 154.668 45.324,154.968 45.323,155.127 45.281 C 155.286 45.239,155.117 45.207,154.750 45.209 C 154.383 45.211,154.253 45.245,154.460 45.285 M152.208 45.453 C 152.460 45.491,152.873 45.491,153.125 45.453 C 153.377 45.415,153.171 45.383,152.667 45.383 C 152.162 45.383,151.956 45.415,152.208 45.453 M136.708 45.615 C 136.869 45.657,137.131 45.657,137.292 45.615 C 137.452 45.573,137.321 45.539,137.000 45.539 C 136.679 45.539,136.548 45.573,136.708 45.615 M140.625 45.623 C 141.106 45.657,141.894 45.657,142.375 45.623 C 142.856 45.589,142.462 45.562,141.500 45.562 C 140.537 45.562,140.144 45.589,140.625 45.623 M148.458 45.623 C 148.940 45.657,149.727 45.657,150.208 45.623 C 150.690 45.589,150.296 45.562,149.333 45.562 C 148.371 45.562,147.977 45.589,148.458 45.623 M235.294 46.618 C 235.501 46.658,235.801 46.656,235.960 46.615 C 236.120 46.573,235.950 46.540,235.583 46.542 C 235.217 46.544,235.086 46.578,235.294 46.618 M294.292 48.791 C 295.231 48.821,296.769 48.821,297.708 48.791 C 298.648 48.761,297.879 48.737,296.000 48.737 C 294.121 48.737,293.352 48.761,294.292 48.791 M290.958 48.951 C 291.165 48.991,291.502 48.991,291.708 48.951 C 291.915 48.911,291.746 48.879,291.333 48.879 C 290.921 48.879,290.752 48.911,290.958 48.951 M300.292 48.951 C 300.498 48.991,300.835 48.991,301.042 48.951 C 301.248 48.911,301.079 48.879,300.667 48.879 C 300.254 48.879,300.085 48.911,300.292 48.951 M234.708 49.115 C 234.869 49.157,235.131 49.157,235.292 49.115 C 235.452 49.073,235.321 49.039,235.000 49.039 C 234.679 49.039,234.548 49.073,234.708 49.115 M302.042 49.115 C 302.202 49.157,302.465 49.157,302.625 49.115 C 302.785 49.073,302.654 49.039,302.333 49.039 C 302.012 49.039,301.881 49.073,302.042 49.115 M202.292 52.118 C 202.498 52.157,202.835 52.157,203.042 52.118 C 203.248 52.078,203.079 52.045,202.667 52.045 C 202.254 52.045,202.085 52.078,202.292 52.118 M205.294 52.118 C 205.501 52.158,205.801 52.156,205.960 52.115 C 206.120 52.073,205.950 52.040,205.583 52.042 C 205.217 52.044,205.086 52.078,205.294 52.118 M203.297 54.623 C 203.782 54.657,204.532 54.656,204.964 54.622 C 205.396 54.588,205.000 54.560,204.083 54.561 C 203.167 54.561,202.813 54.589,203.297 54.623 M344.542 89.583 C 344.544 89.950,344.578 90.080,344.618 89.873 C 344.658 89.666,344.656 89.366,344.615 89.206 C 344.573 89.047,344.540 89.217,344.542 89.583 M344.736 93.917 C 344.736 95.658,344.761 96.348,344.791 95.450 C 344.821 94.551,344.821 93.126,344.791 92.283 C 344.761 91.440,344.736 92.175,344.736 93.917 M344.542 98.250 C 344.544 98.617,344.578 98.747,344.618 98.540 C 344.658 98.332,344.656 98.032,344.615 97.873 C 344.573 97.714,344.540 97.883,344.542 98.250 M344.388 100.250 C 344.389 100.892,344.419 101.134,344.455 100.788 C 344.491 100.442,344.490 99.917,344.454 99.621 C 344.417 99.325,344.387 99.608,344.388 100.250 M344.553 102.500 C 344.553 103.096,344.584 103.340,344.621 103.042 C 344.658 102.744,344.658 102.256,344.621 101.958 C 344.584 101.660,344.553 101.904,344.553 102.500 M170.375 107.457 C 171.177 107.488,172.490 107.488,173.292 107.457 C 174.094 107.427,173.438 107.402,171.833 107.402 C 170.229 107.402,169.573 107.427,170.375 107.457 M165.875 107.621 C 166.219 107.657,166.781 107.657,167.125 107.621 C 167.469 107.585,167.188 107.556,166.500 107.556 C 165.813 107.556,165.531 107.585,165.875 107.621 M176.292 107.621 C 176.590 107.658,177.077 107.658,177.375 107.621 C 177.673 107.584,177.429 107.553,176.833 107.553 C 176.237 107.553,175.994 107.584,176.292 107.621 M163.375 107.786 C 163.627 107.824,164.040 107.824,164.292 107.786 C 164.544 107.748,164.337 107.717,163.833 107.717 C 163.329 107.717,163.123 107.748,163.375 107.786 M178.625 107.784 C 178.831 107.824,179.169 107.824,179.375 107.784 C 179.581 107.745,179.412 107.712,179.000 107.712 C 178.588 107.712,178.419 107.745,178.625 107.784 M161.292 107.951 C 161.498 107.991,161.835 107.991,162.042 107.951 C 162.248 107.911,162.079 107.879,161.667 107.879 C 161.254 107.879,161.085 107.911,161.292 107.951 M180.375 107.948 C 180.535 107.990,180.798 107.990,180.958 107.948 C 181.119 107.906,180.987 107.872,180.667 107.872 C 180.346 107.872,180.215 107.906,180.375 107.948 M159.627 108.118 C 159.834 108.158,160.134 108.156,160.294 108.115 C 160.453 108.073,160.283 108.040,159.917 108.042 C 159.550 108.044,159.420 108.078,159.627 108.118 M157.960 108.285 C 158.168 108.324,158.468 108.323,158.627 108.281 C 158.786 108.239,158.617 108.207,158.250 108.209 C 157.883 108.211,157.753 108.245,157.960 108.285 M156.460 108.451 C 156.668 108.491,156.968 108.490,157.127 108.448 C 157.286 108.406,157.117 108.374,156.750 108.375 C 156.383 108.377,156.253 108.411,156.460 108.451 M155.042 108.615 C 155.202 108.657,155.465 108.657,155.625 108.615 C 155.785 108.573,155.654 108.539,155.333 108.539 C 155.012 108.539,154.881 108.573,155.042 108.615 M153.542 108.782 C 153.702 108.823,153.965 108.823,154.125 108.782 C 154.285 108.740,154.154 108.705,153.833 108.705 C 153.512 108.705,153.381 108.740,153.542 108.782 M152.208 108.948 C 152.369 108.990,152.631 108.990,152.792 108.948 C 152.952 108.906,152.821 108.872,152.500 108.872 C 152.179 108.872,152.048 108.906,152.208 108.948 M149.542 109.282 C 149.702 109.323,149.965 109.323,150.125 109.282 C 150.285 109.240,150.154 109.205,149.833 109.205 C 149.512 109.205,149.381 109.240,149.542 109.282 M144.375 109.948 C 144.535 109.990,144.798 109.990,144.958 109.948 C 145.119 109.906,144.987 109.872,144.667 109.872 C 144.346 109.872,144.215 109.906,144.375 109.948 M167.464 109.956 C 167.948 109.990,168.698 109.990,169.131 109.956 C 169.563 109.921,169.167 109.894,168.250 109.894 C 167.333 109.895,166.980 109.923,167.464 109.956 M174.792 109.955 C 175.181 109.990,175.819 109.990,176.208 109.955 C 176.598 109.920,176.279 109.892,175.500 109.892 C 174.721 109.892,174.402 109.920,174.792 109.955 M143.042 110.115 C 143.202 110.157,143.465 110.157,143.625 110.115 C 143.785 110.073,143.654 110.039,143.333 110.039 C 143.012 110.039,142.881 110.073,143.042 110.115 M164.375 110.119 C 164.627 110.158,165.040 110.158,165.292 110.119 C 165.544 110.081,165.337 110.050,164.833 110.050 C 164.329 110.050,164.123 110.081,164.375 110.119 M177.792 110.118 C 177.998 110.157,178.335 110.157,178.542 110.118 C 178.748 110.078,178.579 110.045,178.167 110.045 C 177.754 110.045,177.585 110.078,177.792 110.118 M141.708 110.282 C 141.869 110.323,142.131 110.323,142.292 110.282 C 142.452 110.240,142.321 110.205,142.000 110.205 C 141.679 110.205,141.548 110.240,141.708 110.282 M162.211 110.286 C 162.464 110.325,162.839 110.324,163.044 110.284 C 163.249 110.244,163.042 110.213,162.583 110.214 C 162.125 110.216,161.957 110.248,162.211 110.286 M179.542 110.282 C 179.702 110.323,179.965 110.323,180.125 110.282 C 180.285 110.240,180.154 110.205,179.833 110.205 C 179.512 110.205,179.381 110.240,179.542 110.282 M160.460 110.451 C 160.668 110.491,160.968 110.490,161.127 110.448 C 161.286 110.406,161.117 110.374,160.750 110.375 C 160.383 110.377,160.253 110.411,160.460 110.451 M138.875 110.615 C 139.035 110.657,139.298 110.657,139.458 110.615 C 139.619 110.573,139.487 110.539,139.167 110.539 C 138.846 110.539,138.715 110.573,138.875 110.615 M158.627 110.618 C 158.834 110.658,159.134 110.656,159.294 110.615 C 159.453 110.573,159.283 110.540,158.917 110.542 C 158.550 110.544,158.420 110.578,158.627 110.618 M137.375 110.782 C 137.535 110.823,137.798 110.823,137.958 110.782 C 138.119 110.740,137.987 110.705,137.667 110.705 C 137.346 110.705,137.215 110.740,137.375 110.782 M157.208 110.782 C 157.369 110.823,157.631 110.823,157.792 110.782 C 157.952 110.740,157.821 110.705,157.500 110.705 C 157.179 110.705,157.048 110.740,157.208 110.782 M135.794 110.951 C 136.001 110.991,136.301 110.990,136.460 110.948 C 136.620 110.906,136.450 110.874,136.083 110.875 C 135.717 110.877,135.586 110.911,135.794 110.951 M155.708 110.948 C 155.869 110.990,156.131 110.990,156.292 110.948 C 156.452 110.906,156.321 110.872,156.000 110.872 C 155.679 110.872,155.548 110.906,155.708 110.948 M116.042 111.115 C 116.202 111.157,116.465 111.157,116.625 111.115 C 116.785 111.073,116.654 111.039,116.333 111.039 C 116.013 111.039,115.881 111.073,116.042 111.115 M133.958 111.118 C 134.165 111.157,134.502 111.157,134.708 111.118 C 134.915 111.078,134.746 111.045,134.333 111.045 C 133.921 111.045,133.752 111.078,133.958 111.118 M154.208 111.115 C 154.369 111.157,154.631 111.157,154.792 111.115 C 154.952 111.073,154.821 111.039,154.500 111.039 C 154.179 111.039,154.048 111.073,154.208 111.115 M117.542 111.282 C 117.702 111.323,117.965 111.323,118.125 111.282 C 118.285 111.240,118.154 111.205,117.833 111.205 C 117.513 111.205,117.381 111.240,117.542 111.282 M131.877 111.286 C 132.131 111.325,132.506 111.324,132.711 111.284 C 132.916 111.244,132.708 111.213,132.250 111.214 C 131.792 111.216,131.624 111.248,131.877 111.286 M152.875 111.282 C 153.035 111.323,153.298 111.323,153.458 111.282 C 153.619 111.240,153.487 111.205,153.167 111.205 C 152.846 111.205,152.715 111.240,152.875 111.282 M119.375 111.453 C 119.627 111.491,120.040 111.491,120.292 111.453 C 120.544 111.415,120.337 111.383,119.833 111.383 C 119.329 111.383,119.123 111.415,119.375 111.453 M129.121 111.454 C 129.417 111.490,129.942 111.491,130.288 111.455 C 130.634 111.419,130.392 111.389,129.750 111.388 C 129.108 111.387,128.825 111.417,129.121 111.454 M151.542 111.448 C 151.702 111.490,151.965 111.490,152.125 111.448 C 152.285 111.406,152.154 111.372,151.833 111.372 C 151.512 111.372,151.381 111.406,151.542 111.448 M123.208 111.624 C 124.010 111.655,125.323 111.655,126.125 111.624 C 126.927 111.594,126.271 111.569,124.667 111.569 C 123.063 111.569,122.406 111.594,123.208 111.624 M150.208 111.615 C 150.369 111.657,150.631 111.657,150.792 111.615 C 150.952 111.573,150.821 111.539,150.500 111.539 C 150.179 111.539,150.048 111.573,150.208 111.615 M146.375 112.115 C 146.535 112.157,146.798 112.157,146.958 112.115 C 147.119 112.073,146.987 112.039,146.667 112.039 C 146.346 112.039,146.215 112.073,146.375 112.115 M145.042 112.282 C 145.202 112.323,145.465 112.323,145.625 112.282 C 145.785 112.240,145.654 112.205,145.333 112.205 C 145.012 112.205,144.881 112.240,145.042 112.282 M141.042 112.782 C 141.202 112.823,141.465 112.823,141.625 112.782 C 141.785 112.740,141.654 112.705,141.333 112.705 C 141.012 112.705,140.881 112.740,141.042 112.782 M139.708 112.948 C 139.869 112.990,140.131 112.990,140.292 112.948 C 140.452 112.906,140.321 112.872,140.000 112.872 C 139.679 112.872,139.548 112.906,139.708 112.948 M138.208 113.115 C 138.369 113.157,138.631 113.157,138.792 113.115 C 138.952 113.073,138.821 113.039,138.500 113.039 C 138.179 113.039,138.048 113.073,138.208 113.115 M136.627 113.285 C 136.834 113.324,137.134 113.323,137.294 113.281 C 137.453 113.239,137.283 113.207,136.917 113.209 C 136.550 113.211,136.420 113.245,136.627 113.285 M134.794 113.451 C 135.001 113.491,135.301 113.490,135.460 113.448 C 135.620 113.406,135.450 113.374,135.083 113.375 C 134.717 113.377,134.586 113.411,134.794 113.451 M116.708 113.615 C 116.869 113.657,117.131 113.657,117.292 113.615 C 117.452 113.573,117.321 113.539,117.000 113.539 C 116.679 113.539,116.548 113.573,116.708 113.615 M132.877 113.620 C 133.131 113.658,133.506 113.657,133.711 113.617 C 133.916 113.578,133.708 113.546,133.250 113.548 C 132.792 113.549,132.624 113.581,132.877 113.620 M118.544 113.786 C 118.797 113.825,119.172 113.824,119.377 113.784 C 119.582 113.744,119.375 113.713,118.917 113.714 C 118.458 113.716,118.291 113.748,118.544 113.786 M130.461 113.787 C 130.761 113.825,131.211 113.824,131.461 113.786 C 131.712 113.748,131.467 113.717,130.917 113.718 C 130.367 113.719,130.162 113.750,130.461 113.787 M122.625 113.958 C 123.840 113.986,125.827 113.986,127.042 113.958 C 128.256 113.929,127.263 113.906,124.833 113.906 C 122.404 113.906,121.410 113.929,122.625 113.958 M33.542 133.083 C 33.544 133.450,33.578 133.580,33.618 133.373 C 33.658 133.166,33.656 132.866,33.615 132.706 C 33.573 132.547,33.540 132.717,33.542 133.083 M33.403 137.500 C 33.403 139.287,33.428 140.019,33.458 139.125 C 33.488 138.231,33.488 136.769,33.458 135.875 C 33.428 134.981,33.403 135.712,33.403 137.500 M33.542 141.917 C 33.544 142.283,33.578 142.414,33.618 142.206 C 33.658 141.999,33.656 141.699,33.615 141.540 C 33.573 141.380,33.540 141.550,33.542 141.917 M366.205 143.333 C 366.205 143.654,366.240 143.785,366.282 143.625 C 366.323 143.465,366.323 143.202,366.282 143.042 C 366.240 142.881,366.205 143.012,366.205 143.333 M366.401 147.000 C 366.401 148.512,366.426 149.131,366.457 148.375 C 366.488 147.619,366.488 146.381,366.457 145.625 C 366.426 144.869,366.401 145.487,366.401 147.000 M366.205 150.667 C 366.205 150.987,366.240 151.119,366.282 150.958 C 366.323 150.798,366.323 150.535,366.282 150.375 C 366.240 150.215,366.205 150.346,366.205 150.667 M139.872 154.000 C 139.872 154.321,139.906 154.452,139.948 154.292 C 139.990 154.131,139.990 153.869,139.948 153.708 C 139.906 153.548,139.872 153.679,139.872 154.000 M139.894 157.083 C 139.895 158.000,139.923 158.354,139.956 157.869 C 139.990 157.385,139.990 156.635,139.956 156.203 C 139.921 155.770,139.894 156.167,139.894 157.083 M123.333 160.250 C 124.476 161.396,125.449 162.333,125.495 162.333 C 125.541 162.333,124.643 161.396,123.500 160.250 C 122.357 159.104,121.384 158.167,121.338 158.167 C 121.293 158.167,122.190 159.104,123.333 160.250 M70.875 181.615 C 71.035 181.657,71.298 181.657,71.458 181.615 C 71.619 181.573,71.487 181.539,71.167 181.539 C 70.846 181.539,70.715 181.573,70.875 181.615 M73.042 181.789 C 73.477 181.824,74.190 181.824,74.625 181.789 C 75.060 181.755,74.704 181.727,73.833 181.727 C 72.962 181.727,72.606 181.755,73.042 181.789 M253.208 181.792 C 261.802 181.816,275.865 181.816,284.458 181.792 C 293.052 181.768,286.021 181.748,268.833 181.748 C 251.646 181.748,244.615 181.768,253.208 181.792 M90.055 181.958 C 98.106 181.982,111.231 181.982,119.222 181.958 C 127.212 181.934,120.625 181.915,104.583 181.915 C 88.542 181.915,82.004 181.934,90.055 181.958 M301.458 181.951 C 301.665 181.991,302.002 181.991,302.208 181.951 C 302.415 181.911,302.246 181.879,301.833 181.879 C 301.421 181.879,301.252 181.911,301.458 181.951 M303.375 182.115 C 303.535 182.157,303.798 182.157,303.958 182.115 C 304.119 182.073,303.987 182.039,303.667 182.039 C 303.346 182.039,303.215 182.073,303.375 182.115 M315.211 184.453 C 315.464 184.491,315.839 184.490,316.044 184.451 C 316.249 184.411,316.042 184.380,315.583 184.381 C 315.125 184.382,314.957 184.415,315.211 184.453 M325.044 184.453 C 325.297 184.491,325.672 184.490,325.877 184.451 C 326.082 184.411,325.875 184.380,325.417 184.381 C 324.958 184.382,324.791 184.415,325.044 184.453 M318.708 184.624 C 319.694 184.654,321.306 184.654,322.292 184.624 C 323.277 184.595,322.471 184.571,320.500 184.571 C 318.529 184.571,317.723 184.595,318.708 184.624 " stroke="none" fill="#bcbcbc" fill-rule="evenodd"></path><path id="path6" d="M182.324 26.625 L 181.750 27.250 182.375 26.676 C 182.957 26.141,183.077 26.000,182.949 26.000 C 182.922 26.000,182.640 26.281,182.324 26.625 M260.000 26.583 C 260.311 26.904,260.603 27.167,260.649 27.167 C 260.695 27.167,260.478 26.904,260.167 26.583 C 259.856 26.262,259.564 26.000,259.518 26.000 C 259.472 26.000,259.689 26.262,260.000 26.583 M179.497 29.292 L 177.417 31.417 179.542 29.336 C 181.516 27.403,181.742 27.167,181.622 27.167 C 181.598 27.167,180.642 28.123,179.497 29.292 M262.833 29.250 C 263.976 30.396,264.949 31.333,264.995 31.333 C 265.041 31.333,264.143 30.396,263.000 29.250 C 261.857 28.104,260.884 27.167,260.838 27.167 C 260.793 27.167,261.690 28.104,262.833 29.250 M176.824 32.125 L 176.250 32.750 176.875 32.176 C 177.457 31.641,177.577 31.500,177.449 31.500 C 177.422 31.500,177.140 31.781,176.824 32.125 M265.500 32.083 C 265.811 32.404,266.103 32.667,266.149 32.667 C 266.195 32.667,265.978 32.404,265.667 32.083 C 265.356 31.762,265.064 31.500,265.018 31.500 C 264.972 31.500,265.189 31.762,265.500 32.083 M171.000 39.417 C 170.317 40.104,169.796 40.667,169.842 40.667 C 169.888 40.667,170.484 40.104,171.167 39.417 C 171.850 38.729,172.371 38.167,172.325 38.167 C 172.279 38.167,171.683 38.729,171.000 39.417 M236.880 46.623 C 237.318 46.657,237.993 46.657,238.380 46.622 C 238.767 46.587,238.408 46.559,237.583 46.559 C 236.758 46.560,236.442 46.588,236.880 46.623 M104.491 59.958 L 103.917 60.583 104.542 60.009 C 105.123 59.474,105.243 59.333,105.116 59.333 C 105.088 59.333,104.807 59.615,104.491 59.958 M329.333 60.917 C 329.644 61.237,329.936 61.500,329.982 61.500 C 330.028 61.500,329.811 61.237,329.500 60.917 C 329.189 60.596,328.897 60.333,328.851 60.333 C 328.805 60.333,329.022 60.596,329.333 60.917 M101.664 62.625 L 99.583 64.750 101.708 62.669 C 103.682 60.736,103.909 60.500,103.789 60.500 C 103.765 60.500,102.809 61.456,101.664 62.625 M331.750 63.167 C 332.663 64.083,333.448 64.833,333.494 64.833 C 333.540 64.833,332.830 64.083,331.917 63.167 C 331.003 62.250,330.219 61.500,330.173 61.500 C 330.127 61.500,330.837 62.250,331.750 63.167 M98.991 65.458 L 98.417 66.083 99.042 65.509 C 99.623 64.974,99.743 64.833,99.616 64.833 C 99.588 64.833,99.307 65.115,98.991 65.458 M334.000 65.583 C 334.311 65.904,334.603 66.167,334.649 66.167 C 334.695 66.167,334.478 65.904,334.167 65.583 C 333.856 65.262,333.564 65.000,333.518 65.000 C 333.472 65.000,333.689 65.262,334.000 65.583 M87.910 82.542 L 87.083 83.417 87.958 82.590 C 88.771 81.821,88.910 81.667,88.785 81.667 C 88.759 81.667,88.365 82.060,87.910 82.542 M84.906 85.208 L 84.417 85.750 84.958 85.260 C 85.256 84.991,85.500 84.748,85.500 84.719 C 85.500 84.590,85.362 84.703,84.906 85.208 M93.083 100.167 C 93.441 100.533,93.772 100.833,93.818 100.833 C 93.863 100.833,93.608 100.533,93.250 100.167 C 92.892 99.800,92.562 99.500,92.516 99.500 C 92.470 99.500,92.725 99.800,93.083 100.167 M91.750 102.000 C 92.571 102.825,93.281 103.500,93.326 103.500 C 93.372 103.500,92.738 102.825,91.917 102.000 C 91.095 101.175,90.386 100.500,90.340 100.500 C 90.294 100.500,90.929 101.175,91.750 102.000 M94.750 101.667 C 95.201 102.125,95.608 102.500,95.654 102.500 C 95.700 102.500,95.368 102.125,94.917 101.667 C 94.465 101.208,94.058 100.833,94.013 100.833 C 93.967 100.833,94.299 101.208,94.750 101.667 M47.745 104.042 L 46.750 105.083 47.792 104.089 C 48.759 103.164,48.910 103.000,48.786 103.000 C 48.761 103.000,48.292 103.469,47.745 104.042 M93.500 103.552 C 93.500 103.581,93.744 103.825,94.042 104.094 L 94.583 104.583 94.094 104.042 C 93.638 103.537,93.500 103.423,93.500 103.552 M45.078 106.708 L 44.083 107.750 45.125 106.755 C 46.093 105.831,46.243 105.667,46.120 105.667 C 46.094 105.667,45.625 106.135,45.078 106.708 M349.750 117.333 C 350.108 117.700,350.438 118.000,350.484 118.000 C 350.530 118.000,350.275 117.700,349.917 117.333 C 349.559 116.967,349.228 116.667,349.182 116.667 C 349.137 116.667,349.392 116.967,349.750 117.333 M351.083 118.833 C 351.441 119.200,351.772 119.500,351.818 119.500 C 351.863 119.500,351.608 119.200,351.250 118.833 C 350.892 118.467,350.562 118.167,350.516 118.167 C 350.470 118.167,350.725 118.467,351.083 118.833 M354.326 121.542 C 354.735 121.977,355.091 122.333,355.118 122.333 C 355.243 122.333,355.111 122.184,354.375 121.493 L 353.583 120.750 354.326 121.542 M356.083 123.167 C 356.535 123.625,356.942 124.000,356.987 124.000 C 357.033 124.000,356.701 123.625,356.250 123.167 C 355.799 122.708,355.392 122.333,355.346 122.333 C 355.300 122.333,355.632 122.708,356.083 123.167 M357.583 124.833 C 357.941 125.200,358.272 125.500,358.318 125.500 C 358.363 125.500,358.108 125.200,357.750 124.833 C 357.392 124.467,357.062 124.167,357.016 124.167 C 356.970 124.167,357.225 124.467,357.583 124.833 M144.215 136.957 C 144.838 136.989,145.813 136.989,146.382 136.957 C 146.951 136.924,146.442 136.898,145.250 136.898 C 144.058 136.898,143.593 136.925,144.215 136.957 M148.500 138.052 C 148.500 138.081,148.744 138.325,149.042 138.594 L 149.583 139.083 149.094 138.542 C 148.638 138.037,148.500 137.923,148.500 138.052 M150.746 161.000 C 150.746 168.012,150.766 170.881,150.792 167.375 C 150.817 163.869,150.817 158.131,150.792 154.625 C 150.766 151.119,150.746 153.987,150.746 161.000 M139.915 185.417 C 139.915 200.175,139.934 206.188,139.958 198.779 C 139.982 191.369,139.982 179.294,139.958 171.945 C 139.934 164.596,139.915 170.658,139.915 185.417 M44.917 168.167 C 45.368 168.625,45.775 169.000,45.821 169.000 C 45.867 169.000,45.535 168.625,45.083 168.167 C 44.632 167.708,44.225 167.333,44.179 167.333 C 44.133 167.333,44.465 167.708,44.917 168.167 M357.658 169.125 L 357.083 169.750 357.708 169.176 C 358.290 168.641,358.410 168.500,358.283 168.500 C 358.255 168.500,357.974 168.781,357.658 169.125 M46.333 169.750 C 46.644 170.071,46.936 170.333,46.982 170.333 C 47.028 170.333,46.811 170.071,46.500 169.750 C 46.189 169.429,45.897 169.167,45.851 169.167 C 45.805 169.167,46.022 169.429,46.333 169.750 M356.078 170.875 L 355.083 171.917 356.125 170.922 C 356.698 170.375,357.167 169.906,357.167 169.880 C 357.167 169.757,357.002 169.907,356.078 170.875 M47.917 171.167 C 48.368 171.625,48.775 172.000,48.821 172.000 C 48.867 172.000,48.535 171.625,48.083 171.167 C 47.632 170.708,47.225 170.333,47.179 170.333 C 47.133 170.333,47.465 170.708,47.917 171.167 M354.242 172.542 L 353.583 173.250 354.292 172.591 C 354.950 171.978,355.077 171.833,354.950 171.833 C 354.923 171.833,354.605 172.152,354.242 172.542 M150.749 214.667 C 150.749 235.887,150.768 244.569,150.792 233.958 C 150.815 223.348,150.815 205.985,150.792 195.375 C 150.768 184.765,150.749 193.446,150.749 214.667 M220.579 222.833 C 220.579 228.746,220.599 231.165,220.625 228.208 C 220.650 225.252,220.650 220.415,220.625 217.458 C 220.599 214.502,220.579 216.921,220.579 222.833 M139.912 243.333 C 139.912 248.787,139.933 251.019,139.958 248.292 C 139.984 245.565,139.984 241.102,139.958 238.375 C 139.933 235.648,139.912 237.879,139.912 243.333 M220.571 241.250 C 220.571 243.175,220.595 243.940,220.624 242.949 C 220.654 241.959,220.654 240.384,220.624 239.449 C 220.595 238.515,220.570 239.325,220.571 241.250 M227.906 247.875 L 227.417 248.417 227.958 247.927 C 228.463 247.471,228.577 247.333,228.448 247.333 C 228.419 247.333,228.175 247.577,227.906 247.875 " stroke="none" fill="#8a8a8a" fill-rule="evenodd"></path><path id="path7" d="M180.833 28.083 C 180.428 28.496,180.135 28.833,180.181 28.833 C 180.226 28.833,180.595 28.496,181.000 28.083 C 181.405 27.671,181.699 27.333,181.653 27.333 C 181.607 27.333,181.238 27.671,180.833 28.083 M261.493 28.042 C 262.184 28.778,262.333 28.910,262.333 28.785 C 262.333 28.758,261.977 28.402,261.542 27.993 L 260.750 27.250 261.493 28.042 M178.333 30.583 C 177.928 30.996,177.635 31.333,177.681 31.333 C 177.726 31.333,178.095 30.996,178.500 30.583 C 178.905 30.171,179.199 29.833,179.153 29.833 C 179.107 29.833,178.738 30.171,178.333 30.583 M263.993 30.542 C 264.684 31.278,264.833 31.410,264.833 31.285 C 264.833 31.258,264.477 30.902,264.042 30.493 L 263.250 29.750 263.993 30.542 M171.078 39.542 L 170.083 40.583 171.125 39.589 C 171.698 39.041,172.167 38.573,172.167 38.547 C 172.167 38.424,172.002 38.574,171.078 39.542 M144.382 45.790 C 145.004 45.823,145.979 45.822,146.549 45.790 C 147.118 45.757,146.608 45.731,145.417 45.731 C 144.225 45.732,143.759 45.758,144.382 45.790 M235.792 49.118 C 235.998 49.157,236.335 49.157,236.542 49.118 C 236.748 49.078,236.579 49.045,236.167 49.045 C 235.754 49.045,235.585 49.078,235.792 49.118 M238.544 49.120 C 238.797 49.158,239.172 49.157,239.377 49.117 C 239.582 49.078,239.375 49.046,238.917 49.048 C 238.458 49.049,238.291 49.081,238.544 49.120 M203.708 52.119 C 203.960 52.158,204.373 52.158,204.625 52.119 C 204.877 52.081,204.671 52.050,204.167 52.050 C 203.662 52.050,203.456 52.081,203.708 52.119 M201.708 54.615 C 201.869 54.657,202.131 54.657,202.292 54.615 C 202.452 54.573,202.321 54.539,202.000 54.539 C 201.679 54.539,201.548 54.573,201.708 54.615 M101.750 62.667 C 100.653 63.767,99.793 64.667,99.839 64.667 C 99.884 64.667,100.820 63.767,101.917 62.667 C 103.014 61.567,103.874 60.667,103.828 60.667 C 103.782 60.667,102.847 61.567,101.750 62.667 M331.667 63.250 C 332.534 64.121,333.281 64.833,333.327 64.833 C 333.373 64.833,332.701 64.121,331.833 63.250 C 330.966 62.379,330.219 61.667,330.173 61.667 C 330.127 61.667,330.799 62.379,331.667 63.250 M93.167 100.083 C 93.478 100.404,93.770 100.667,93.815 100.667 C 93.861 100.667,93.644 100.404,93.333 100.083 C 93.022 99.763,92.730 99.500,92.685 99.500 C 92.639 99.500,92.856 99.763,93.167 100.083 M91.417 101.833 C 92.053 102.475,92.612 103.000,92.658 103.000 C 92.704 103.000,92.220 102.475,91.583 101.833 C 90.947 101.192,90.388 100.667,90.342 100.667 C 90.296 100.667,90.780 101.192,91.417 101.833 M168.127 107.451 C 168.334 107.491,168.634 107.490,168.794 107.448 C 168.953 107.406,168.783 107.374,168.417 107.375 C 168.050 107.377,167.920 107.411,168.127 107.451 M174.875 107.448 C 175.035 107.490,175.298 107.490,175.458 107.448 C 175.619 107.406,175.487 107.372,175.167 107.372 C 174.846 107.372,174.715 107.406,174.875 107.448 M170.875 109.957 C 171.494 109.989,172.506 109.989,173.125 109.957 C 173.744 109.925,173.237 109.899,172.000 109.899 C 170.762 109.899,170.256 109.925,170.875 109.957 M120.875 111.448 C 121.035 111.490,121.298 111.490,121.458 111.448 C 121.619 111.406,121.487 111.372,121.167 111.372 C 120.846 111.372,120.715 111.406,120.875 111.448 M127.875 111.448 C 128.035 111.490,128.298 111.490,128.458 111.448 C 128.619 111.406,128.487 111.372,128.167 111.372 C 127.846 111.372,127.715 111.406,127.875 111.448 M349.333 117.052 C 349.333 117.081,349.577 117.325,349.875 117.594 L 350.417 118.083 349.927 117.542 C 349.471 117.037,349.333 116.923,349.333 117.052 M355.993 123.208 C 356.684 123.944,356.833 124.077,356.833 123.951 C 356.833 123.925,356.477 123.568,356.042 123.160 L 355.250 122.417 355.993 123.208 M46.000 169.219 C 46.000 169.248,46.244 169.491,46.542 169.760 L 47.083 170.250 46.594 169.708 C 46.138 169.203,46.000 169.090,46.000 169.219 M355.994 170.792 L 355.083 171.750 356.042 170.839 C 356.932 169.993,357.076 169.833,356.953 169.833 C 356.927 169.833,356.495 170.265,355.994 170.792 M231.223 175.000 C 231.223 175.688,231.252 175.969,231.288 175.625 C 231.324 175.281,231.324 174.719,231.288 174.375 C 231.252 174.031,231.223 174.313,231.223 175.000 M224.000 247.885 C 224.000 247.914,224.244 248.158,224.542 248.427 L 225.083 248.917 224.594 248.375 C 224.138 247.870,224.000 247.757,224.000 247.885 " stroke="none" fill="#cacaca" fill-rule="evenodd"></path><path id="path8" d="" stroke="none" fill="#ccc4bc" fill-rule="evenodd"></path></g></svg>