<svg id="svg" version="1.1" xmlns="http://www.w3.org/2000/svg" xmlns:xlink="http://www.w3.org/1999/xlink" width="400" height="400" viewBox="0, 0, 400,400"><g id="svgg"><path id="path0" d="M194.000 14.939 C 157.206 16.202,126.341 38.783,118.733 70.003 C 118.387 71.422,118.015 72.696,117.906 72.833 C 117.797 72.971,117.606 73.370,117.482 73.721 C 117.123 74.738,116.337 75.478,112.583 78.333 C 110.870 79.636,110.196 80.169,109.167 81.036 C 106.438 83.332,105.878 83.712,103.314 85.009 C 102.362 85.490,101.471 85.974,101.333 86.084 C 101.068 86.297,100.124 86.776,93.750 89.929 C 90.527 91.523,89.552 92.087,88.731 92.829 C 87.336 94.089,85.822 95.281,84.333 96.288 C 83.646 96.753,82.558 97.559,81.917 98.078 C 81.275 98.598,80.448 99.187,80.078 99.387 C 79.287 99.814,75.785 103.433,73.932 105.736 C 56.596 127.291,56.123 157.417,72.773 179.599 L 74.161 181.448 76.690 181.557 C 78.081 181.617,91.136 181.667,105.700 181.667 L 132.179 181.667 132.131 187.250 C 132.105 190.321,132.121 192.833,132.167 192.833 C 132.212 192.832,133.750 192.682,135.583 192.500 C 137.417 192.318,138.935 192.168,138.958 192.167 C 138.981 192.167,139.000 173.754,139.000 151.250 L 139.000 110.333 144.724 110.333 L 150.447 110.333 150.389 175.475 L 150.331 240.616 153.649 243.808 C 157.850 247.850,157.044 247.852,161.217 243.792 L 164.515 240.583 164.503 204.250 C 164.497 184.267,164.474 154.960,164.454 139.125 L 164.417 110.333 170.125 110.333 L 175.833 110.333 175.833 125.157 C 175.833 133.310,175.894 140.018,175.969 140.064 C 176.043 140.110,183.436 133.138,192.398 124.570 L 208.691 108.993 211.822 109.038 L 214.953 109.083 229.599 123.083 C 237.655 130.783,245.023 137.834,245.974 138.752 L 247.703 140.422 243.995 144.294 C 241.955 146.424,240.225 148.167,240.150 148.167 C 240.075 148.167,237.901 146.123,235.319 143.625 C 232.737 141.127,230.559 139.058,230.479 139.028 C 230.397 138.997,230.333 143.230,230.333 148.694 C 230.333 154.042,230.305 164.792,230.271 172.583 C 230.237 180.375,230.240 185.995,230.277 185.072 L 230.344 183.394 232.464 183.196 C 233.630 183.087,234.940 182.999,235.375 182.999 C 235.810 183.000,236.167 182.925,236.167 182.833 C 236.167 182.734,236.806 182.667,237.750 182.667 C 238.694 182.667,239.333 182.599,239.333 182.500 C 239.333 182.408,239.765 182.326,240.292 182.317 C 241.735 182.292,243.010 182.104,243.005 181.917 C 243.002 181.807,251.290 181.720,267.375 181.662 L 291.750 181.574 293.312 181.030 C 294.172 180.731,295.559 180.132,296.396 179.699 C 297.232 179.266,298.469 178.661,299.144 178.355 C 299.819 178.049,300.644 177.558,300.977 177.263 C 301.310 176.968,301.883 176.549,302.250 176.331 C 302.617 176.112,303.254 175.666,303.667 175.338 C 304.079 175.010,304.679 174.600,305.000 174.427 C 315.809 168.577,327.878 156.048,333.491 144.850 C 350.875 110.164,328.270 70.373,283.250 56.414 C 282.150 56.073,281.162 55.683,281.054 55.548 C 280.821 55.257,278.070 54.131,276.417 53.650 C 275.775 53.464,274.725 53.121,274.083 52.889 C 273.442 52.657,272.692 52.410,272.417 52.340 C 269.012 51.470,268.206 50.871,264.465 46.432 C 263.859 45.712,261.351 43.439,260.588 42.917 C 259.803 42.380,258.167 40.801,258.167 40.580 C 258.167 40.013,251.905 34.343,248.214 31.568 C 233.447 20.467,213.269 14.278,194.000 14.939 M208.045 124.458 L 204.840 127.583 204.732 191.542 L 204.623 255.500 211.729 255.500 L 218.834 255.500 218.828 191.591 L 218.822 127.681 216.203 125.116 C 211.314 120.329,212.206 120.401,208.045 124.458 M188.193 143.656 L 183.380 148.311 179.744 144.497 C 177.744 142.400,176.048 140.720,175.976 140.765 C 175.813 140.865,175.803 188.465,175.966 188.554 C 176.101 188.627,192.809 187.037,193.125 186.921 C 193.391 186.823,193.435 139.000,193.170 139.000 C 193.079 139.000,190.840 141.095,188.193 143.656 " stroke="none" fill="#fbfbfb" fill-rule="evenodd"></path><path id="path1" d="M192.000 4.099 C 185.817 4.515,183.528 4.768,179.196 5.513 C 142.061 11.900,113.196 38.485,107.153 71.865 L 106.770 73.981 105.510 74.252 C 55.065 85.102,32.986 144.589,64.003 186.083 C 65.841 188.542,68.819 191.981,69.377 192.289 C 69.669 192.451,76.489 192.496,100.875 192.498 L 132.000 192.500 132.000 187.175 L 132.000 181.850 103.230 181.800 L 74.461 181.750 73.812 181.000 C 69.786 176.350,65.647 168.678,63.346 161.602 C 56.654 141.029,62.013 117.755,77.010 102.250 C 78.074 101.150,78.991 100.122,79.048 99.965 C 79.105 99.808,79.511 99.496,79.951 99.270 C 80.390 99.044,81.220 98.478,81.794 98.012 C 82.368 97.546,83.465 96.730,84.232 96.198 C 85.960 95.000,87.455 93.829,88.600 92.779 C 89.238 92.192,90.460 91.477,93.101 90.143 C 95.094 89.135,96.879 88.204,97.066 88.072 C 97.254 87.941,97.495 87.833,97.601 87.833 C 97.708 87.833,98.760 87.319,99.939 86.691 C 106.289 83.309,106.424 83.223,109.250 80.829 C 110.075 80.130,111.200 79.232,111.750 78.833 C 114.973 76.499,116.991 74.642,117.321 73.708 C 117.442 73.364,117.645 72.964,117.772 72.819 C 117.899 72.673,118.265 71.486,118.586 70.180 C 124.273 47.019,143.040 27.846,168.298 19.393 C 196.288 10.026,228.114 15.350,250.241 33.102 C 252.588 34.985,258.146 40.137,258.312 40.583 C 258.446 40.945,259.645 42.080,260.807 42.947 C 262.239 44.013,264.374 46.116,266.239 48.295 C 268.065 50.428,268.892 51.027,270.917 51.680 C 271.833 51.976,273.146 52.423,273.833 52.675 C 274.521 52.926,275.653 53.290,276.349 53.484 C 278.073 53.964,280.874 55.102,281.104 55.416 C 281.207 55.558,282.708 56.147,284.440 56.726 C 312.135 65.982,332.302 85.129,337.917 107.500 C 339.082 112.142,339.410 114.961,339.410 120.333 C 339.410 140.951,327.741 159.936,306.829 173.341 C 305.227 174.368,303.692 175.412,303.417 175.661 C 303.142 175.910,302.617 176.291,302.250 176.507 C 301.883 176.723,301.246 177.172,300.833 177.505 C 300.421 177.838,299.596 178.319,299.000 178.574 C 298.404 178.828,297.242 179.392,296.417 179.827 C 294.849 180.653,292.555 181.483,291.417 181.636 C 291.050 181.685,280.066 181.750,267.009 181.781 C 248.351 181.825,243.239 181.881,243.136 182.043 C 243.064 182.157,243.004 184.557,243.003 187.378 L 243.000 192.505 268.125 192.461 L 293.250 192.417 295.917 191.285 C 326.021 178.508,345.872 155.714,349.652 129.583 C 355.302 90.517,324.700 54.398,276.503 43.250 C 275.084 42.922,273.872 42.563,273.809 42.451 C 273.747 42.340,272.966 41.274,272.074 40.083 C 256.888 19.800,232.813 6.884,205.583 4.409 C 202.917 4.167,194.010 3.963,192.000 4.099 M192.318 124.692 L 175.917 140.384 175.874 125.359 L 175.832 110.333 170.181 110.333 L 164.531 110.333 164.592 175.459 L 164.653 240.585 161.257 243.876 C 158.701 246.353,157.758 247.167,157.448 247.167 C 157.139 247.167,156.197 246.362,153.694 243.958 L 150.354 240.750 150.345 215.750 C 150.340 202.000,150.335 172.656,150.334 150.542 L 150.333 110.333 144.772 110.333 L 139.212 110.333 139.064 151.208 C 138.983 173.690,138.925 200.501,138.936 210.790 L 138.956 229.496 136.353 227.018 C 134.921 225.654,132.688 223.484,131.390 222.195 L 129.031 219.851 127.640 221.384 C 126.876 222.227,125.178 224.021,123.869 225.372 L 121.487 227.827 137.869 243.496 L 154.250 259.164 157.430 259.165 L 160.609 259.167 176.930 243.563 L 193.250 227.959 193.293 241.896 L 193.335 255.833 198.709 255.840 C 215.856 255.860,230.074 255.815,230.147 255.742 C 230.194 255.695,230.224 229.368,230.215 197.236 C 230.204 162.929,230.259 138.837,230.346 138.866 C 230.428 138.894,232.638 140.979,235.257 143.500 C 237.875 146.021,240.084 148.083,240.166 148.083 C 240.247 148.083,241.965 146.358,243.983 144.250 L 247.653 140.417 246.868 139.647 C 246.436 139.223,239.053 132.154,230.460 123.938 L 214.836 109.000 211.777 109.000 L 208.719 109.000 192.318 124.692 M215.478 124.354 L 218.778 127.541 218.889 172.395 C 219.027 228.236,219.028 253.660,218.892 254.793 L 218.786 255.670 211.685 255.627 L 204.583 255.583 204.585 249.958 C 204.585 246.865,204.608 218.065,204.636 185.958 L 204.686 127.583 208.040 124.375 C 210.453 122.066,211.503 121.167,211.786 121.167 C 212.069 121.167,213.095 122.052,215.478 124.354 M193.305 183.262 L 193.284 227.690 192.299 226.720 C 191.757 226.187,190.101 224.456,188.617 222.875 C 187.134 221.294,185.876 220.000,185.821 220.000 C 185.766 220.000,183.927 221.767,181.735 223.926 C 179.543 226.086,177.338 228.215,176.833 228.657 L 175.917 229.461 175.863 184.980 C 175.834 160.516,175.842 140.500,175.881 140.500 C 175.920 140.500,177.593 142.206,179.599 144.292 C 181.605 146.377,183.291 148.104,183.346 148.130 C 183.400 148.155,185.613 146.077,188.264 143.511 C 190.915 140.946,193.138 138.844,193.205 138.840 C 193.272 138.836,193.317 158.826,193.305 183.262 " stroke="none" fill="#242424" fill-rule="evenodd"></path><path id="path2" d="M150.372 221.667 C 150.372 221.987,150.406 222.119,150.448 221.958 C 150.490 221.798,150.490 221.535,150.448 221.375 C 150.406 221.215,150.372 221.346,150.372 221.667 M204.705 221.667 C 204.705 221.987,204.740 222.119,204.782 221.958 C 204.823 221.798,204.823 221.535,204.782 221.375 C 204.740 221.215,204.705 221.346,204.705 221.667 M65.292 222.125 C 70.173 222.150,78.160 222.150,83.042 222.125 C 87.923 222.100,83.929 222.080,74.167 222.080 C 64.404 222.080,60.410 222.100,65.292 222.125 M118.312 227.625 C 118.300 230.627,118.308 233.970,118.330 235.053 L 118.369 237.022 117.726 237.595 C 117.373 237.910,116.558 238.440,115.917 238.773 C 115.275 239.106,114.375 239.655,113.917 239.994 C 113.458 240.332,112.511 240.931,111.811 241.323 C 111.112 241.716,110.155 242.328,109.686 242.683 L 108.831 243.330 79.707 243.373 L 50.583 243.417 50.541 318.159 C 50.518 359.267,50.562 392.829,50.637 392.742 C 50.713 392.655,52.896 387.746,55.489 381.833 C 58.082 375.921,60.639 370.108,61.172 368.917 C 61.705 367.725,65.251 359.700,69.051 351.083 C 88.783 306.346,102.016 276.410,103.495 273.167 C 104.059 271.929,105.537 268.629,106.780 265.833 C 108.022 263.037,109.104 260.668,109.184 260.569 C 109.288 260.439,129.376 260.355,179.790 260.273 C 247.595 260.163,261.956 260.091,262.193 259.858 C 262.294 259.757,262.109 238.773,261.937 230.917 C 261.822 225.643,261.132 223.925,258.630 222.674 L 257.613 222.167 244.000 222.167 L 230.387 222.167 230.277 227.194 C 230.216 229.959,230.167 237.571,230.167 244.110 L 230.167 256.000 211.751 256.000 L 193.335 256.000 193.293 242.021 L 193.250 228.042 176.917 243.681 L 160.583 259.319 157.453 259.326 L 154.323 259.333 137.910 243.629 C 128.883 234.992,121.517 227.873,121.540 227.809 C 121.564 227.744,122.771 226.449,124.223 224.929 L 126.862 222.167 122.598 222.167 L 118.333 222.167 118.312 227.625 M135.083 225.743 C 137.100 227.708,138.806 229.320,138.875 229.325 C 138.944 229.329,139.000 227.721,139.000 225.750 L 139.000 222.167 135.208 222.168 L 131.417 222.170 135.083 225.743 M176.000 225.769 L 176.000 229.372 178.792 226.699 C 180.327 225.229,181.993 223.608,182.494 223.097 L 183.405 222.167 179.703 222.167 L 176.000 222.167 176.000 225.769 M188.194 222.311 C 188.225 222.391,189.394 223.638,190.792 225.083 L 193.333 227.710 193.333 224.938 L 193.333 222.167 190.736 222.167 C 189.308 222.167,188.164 222.232,188.194 222.311 M50.577 234.417 C 50.577 238.817,50.599 240.593,50.625 238.363 C 50.651 236.134,50.651 232.534,50.625 230.363 C 50.599 228.193,50.577 230.017,50.577 234.417 M208.303 255.625 C 210.257 255.652,213.407 255.651,215.303 255.625 C 217.199 255.598,215.600 255.576,211.750 255.576 C 207.900 255.576,206.349 255.598,208.303 255.625 M260.760 260.962 C 260.714 261.008,226.756 261.081,185.297 261.125 C 143.838 261.169,109.866 261.252,109.805 261.311 C 109.673 261.436,95.215 294.117,71.048 348.917 C 66.601 359.000,60.976 371.750,58.547 377.250 C 51.154 393.994,50.667 395.111,50.667 395.298 C 50.667 395.398,50.423 395.509,50.125 395.546 C 49.827 395.583,93.121 395.623,146.333 395.635 C 226.957 395.653,243.035 395.619,242.791 395.434 C 242.526 395.233,303.514 268.289,304.414 267.167 C 304.755 266.742,305.494 264.530,305.602 263.610 C 305.725 262.564,305.334 261.971,304.142 261.389 C 303.452 261.052,261.087 260.636,260.760 260.962 M306.320 262.099 C 306.405 262.365,306.505 262.696,306.543 262.833 C 306.583 262.978,306.648 262.892,306.699 262.629 C 306.758 262.316,306.689 262.088,306.476 261.895 C 306.178 261.625,306.172 261.634,306.320 262.099 M257.865 365.591 C 257.363 366.625,257.419 366.770,257.936 365.775 C 258.167 365.331,258.328 364.939,258.293 364.904 C 258.258 364.869,258.065 365.179,257.865 365.591 M256.034 369.425 C 255.649 370.202,255.337 370.893,255.342 370.961 C 255.346 371.028,255.689 370.419,256.102 369.608 C 256.516 368.796,256.827 368.105,256.795 368.072 C 256.762 368.039,256.419 368.648,256.034 369.425 M254.289 373.033 C 248.458 385.032,247.444 387.167,247.576 387.167 C 247.798 387.167,255.418 371.362,255.268 371.213 C 255.233 371.178,254.793 371.997,254.289 373.033 M245.600 390.950 C 244.778 392.613,244.593 393.102,244.875 392.868 C 245.180 392.615,246.214 390.391,246.136 390.157 C 246.104 390.061,245.863 390.418,245.600 390.950 " stroke="none" fill="#fbd363" fill-rule="evenodd"></path><path id="path3" d="M54.846 221.338 C 52.363 222.465,50.910 223.631,49.992 225.231 L 49.503 226.083 49.502 310.792 L 49.500 395.500 50.083 395.500 C 50.411 395.500,50.667 395.416,50.667 395.309 C 50.667 395.111,51.127 394.056,58.547 377.250 C 60.976 371.750,66.601 359.000,71.048 348.917 C 95.215 294.117,109.673 261.436,109.805 261.311 C 109.928 261.193,248.204 260.943,282.083 260.999 L 303.417 261.034 304.142 261.389 C 305.335 261.971,305.725 262.565,305.602 263.610 C 305.494 264.530,304.755 266.742,304.414 267.167 C 304.304 267.304,290.329 296.168,273.359 331.308 L 242.504 395.200 242.877 395.511 C 243.397 395.945,243.346 395.997,244.083 394.295 C 244.450 393.449,245.208 391.851,245.769 390.742 C 246.329 389.634,247.072 388.095,247.419 387.322 C 248.027 385.971,251.131 379.516,254.628 372.333 C 258.761 363.844,259.667 361.953,259.667 361.814 C 259.667 361.733,259.729 361.667,259.805 361.667 C 259.882 361.667,260.228 361.010,260.574 360.208 C 260.921 359.406,261.263 358.675,261.335 358.583 C 261.406 358.492,271.116 338.429,282.913 314.000 C 294.709 289.571,304.645 269.052,304.992 268.403 C 305.526 267.403,306.215 265.327,306.570 263.647 C 306.719 262.940,306.226 261.579,305.642 261.088 C 304.308 259.965,306.061 260.058,283.670 259.929 C 272.535 259.865,263.406 259.795,263.383 259.772 C 263.361 259.750,263.260 252.573,263.159 243.824 C 263.019 231.736,262.921 227.650,262.749 226.807 C 262.288 224.534,261.131 222.858,259.260 221.752 L 258.270 221.167 244.218 221.167 L 230.167 221.167 230.167 221.708 L 230.167 222.250 243.856 222.206 L 257.545 222.163 258.405 222.557 C 261.071 223.777,261.820 225.549,261.937 230.917 C 262.109 238.773,262.294 259.757,262.193 259.858 C 261.956 260.091,247.595 260.163,179.790 260.273 C 129.376 260.355,109.288 260.439,109.184 260.569 C 109.104 260.668,108.022 263.037,106.780 265.833 C 105.537 268.629,104.059 271.929,103.495 273.167 C 102.016 276.410,88.783 306.346,69.051 351.083 C 65.251 359.700,61.705 367.725,61.172 368.917 C 60.639 370.108,58.082 375.921,55.489 381.833 C 52.896 387.746,50.713 392.655,50.637 392.742 C 50.562 392.829,50.518 359.267,50.541 318.159 L 50.583 243.417 79.707 243.373 L 108.831 243.330 109.686 242.683 C 110.155 242.328,111.112 241.716,111.811 241.323 C 112.511 240.931,113.458 240.332,113.917 239.994 C 114.375 239.655,115.275 239.106,115.917 238.773 C 116.558 238.440,117.373 237.910,117.726 237.595 L 118.369 237.022 118.330 235.053 C 118.308 233.970,118.300 230.627,118.312 227.625 L 118.333 222.167 122.635 222.167 L 126.938 222.167 127.385 221.699 C 127.632 221.442,127.833 221.180,127.833 221.117 C 127.833 221.053,111.620 220.982,91.804 220.959 L 55.775 220.917 54.846 221.338 M130.333 221.116 C 130.333 221.180,130.535 221.442,130.781 221.699 L 131.229 222.167 135.115 222.167 L 139.000 222.167 139.000 221.583 L 139.000 221.000 134.667 221.000 C 132.283 221.000,130.333 221.052,130.333 221.116 M176.000 221.661 L 176.000 222.154 179.758 222.202 L 183.516 222.250 184.041 221.708 L 184.565 221.167 180.283 221.167 L 176.000 221.167 176.000 221.661 M187.459 221.708 L 187.984 222.250 190.659 222.200 L 193.333 222.151 193.333 221.659 L 193.333 221.167 190.134 221.167 L 186.935 221.167 187.459 221.708 M83.042 222.125 C 78.160 222.150,70.173 222.150,65.292 222.125 C 60.410 222.100,64.404 222.080,74.167 222.080 C 83.929 222.080,87.923 222.100,83.042 222.125 M230.234 226.333 C 230.234 227.754,230.259 228.335,230.291 227.625 C 230.322 226.915,230.322 225.752,230.291 225.042 C 230.259 224.331,230.234 224.912,230.234 226.333 M50.625 238.363 C 50.599 240.593,50.577 238.817,50.577 234.417 C 50.577 230.017,50.599 228.193,50.625 230.363 C 50.651 232.534,50.651 236.134,50.625 238.363 " stroke="none" fill="#b78509" fill-rule="evenodd"></path><path id="path4" d="M193.213 14.956 C 193.652 14.990,194.327 14.990,194.713 14.955 C 195.100 14.920,194.742 14.892,193.917 14.892 C 193.092 14.893,192.775 14.922,193.213 14.956 M198.547 14.956 C 198.985 14.990,199.660 14.990,200.047 14.955 C 200.434 14.920,200.075 14.892,199.250 14.892 C 198.425 14.893,198.109 14.922,198.547 14.956 M190.127 15.118 C 190.334 15.158,190.634 15.156,190.794 15.115 C 190.953 15.073,190.783 15.040,190.417 15.042 C 190.050 15.044,189.920 15.078,190.127 15.118 M202.460 15.118 C 202.668 15.158,202.968 15.156,203.127 15.115 C 203.286 15.073,203.117 15.040,202.750 15.042 C 202.383 15.044,202.253 15.078,202.460 15.118 M187.960 15.285 C 188.168 15.324,188.468 15.323,188.627 15.281 C 188.786 15.239,188.617 15.207,188.250 15.209 C 187.883 15.211,187.753 15.245,187.960 15.285 M204.627 15.285 C 204.834 15.324,205.134 15.323,205.294 15.281 C 205.453 15.239,205.283 15.207,204.917 15.209 C 204.550 15.211,204.420 15.245,204.627 15.285 M258.112 40.477 C 258.157 40.648,258.619 41.192,259.139 41.686 L 260.083 42.583 259.208 41.661 C 258.727 41.154,258.333 40.653,258.333 40.546 C 258.333 40.440,258.265 40.311,258.182 40.260 C 258.099 40.208,258.068 40.306,258.112 40.477 M261.750 43.772 C 262.883 44.904,264.867 46.691,264.250 46.025 C 263.883 45.629,263.058 44.848,262.417 44.289 C 261.775 43.730,261.475 43.498,261.750 43.772 M265.084 47.167 C 266.187 49.051,268.840 51.178,270.917 51.843 C 271.833 52.136,272.950 52.517,273.397 52.688 C 273.845 52.860,274.295 52.996,274.397 52.992 C 274.660 52.980,272.883 52.309,270.917 51.678 C 269.200 51.126,267.970 50.359,267.054 49.266 C 266.288 48.353,264.932 46.909,265.084 47.167 M275.917 53.500 C 276.100 53.579,276.362 53.643,276.500 53.643 C 276.658 53.643,276.627 53.590,276.417 53.500 C 276.233 53.421,275.971 53.357,275.833 53.357 C 275.676 53.357,275.707 53.410,275.917 53.500 M278.250 54.258 C 280.494 55.124,280.972 55.352,281.068 55.604 C 281.117 55.730,281.245 55.833,281.352 55.833 C 281.460 55.833,281.358 55.657,281.125 55.441 C 280.732 55.077,277.379 53.659,276.943 53.673 C 276.837 53.676,277.425 53.940,278.250 54.258 M117.817 72.725 C 117.670 72.922,117.449 73.364,117.325 73.708 C 117.044 74.487,116.616 74.951,114.833 76.404 C 113.365 77.601,112.593 78.295,113.250 77.828 C 115.497 76.231,117.169 74.609,117.483 73.721 C 117.606 73.370,117.823 72.952,117.964 72.791 C 118.105 72.630,118.189 72.468,118.152 72.432 C 118.114 72.396,117.963 72.527,117.817 72.725 M110.746 79.592 C 109.650 80.465,108.906 81.142,109.500 80.725 C 110.323 80.149,112.113 78.667,111.987 78.667 C 111.944 78.667,111.385 79.083,110.746 79.592 M108.240 81.708 L 107.750 82.250 108.333 81.750 C 108.653 81.475,108.947 81.231,108.985 81.208 C 109.024 81.185,108.982 81.167,108.892 81.167 C 108.802 81.167,108.509 81.410,108.240 81.708 M106.833 82.773 C 105.926 83.485,105.814 83.600,106.250 83.368 C 106.613 83.174,107.802 82.179,107.667 82.182 C 107.621 82.183,107.246 82.449,106.833 82.773 M104.297 84.316 C 102.430 85.325,102.183 85.574,103.917 84.700 C 105.070 84.118,106.093 83.489,105.833 83.521 C 105.787 83.526,105.096 83.884,104.297 84.316 M99.515 86.920 C 98.560 87.422,97.687 87.833,97.575 87.833 C 97.462 87.833,97.193 87.984,96.977 88.169 L 96.583 88.505 97.083 88.267 C 99.599 87.073,101.629 85.989,101.325 86.004 C 101.284 86.006,100.469 86.418,99.515 86.920 M88.653 92.712 C 87.503 93.789,85.914 95.051,84.542 95.976 C 83.969 96.363,83.500 96.717,83.500 96.762 C 83.500 96.889,85.449 95.548,86.648 94.595 C 87.965 93.549,89.867 91.832,89.704 91.837 C 89.638 91.839,89.165 92.232,88.653 92.712 M82.000 97.844 C 81.313 98.397,80.380 99.052,79.928 99.300 C 79.475 99.547,79.087 99.846,79.065 99.962 C 79.043 100.079,79.064 100.096,79.111 100.000 C 79.159 99.903,79.509 99.666,79.890 99.472 C 80.697 99.062,83.590 96.852,83.333 96.842 C 83.287 96.840,82.688 97.291,82.000 97.844 M139.081 131.667 C 139.081 143.446,139.101 148.265,139.125 142.375 C 139.149 136.485,139.149 126.848,139.125 120.958 C 139.101 115.069,139.081 119.888,139.081 131.667 M150.411 119.750 C 150.411 124.975,150.432 127.088,150.458 124.446 C 150.484 121.805,150.484 117.530,150.458 114.946 C 150.432 112.363,150.411 114.525,150.411 119.750 M164.578 119.750 C 164.578 124.792,164.599 126.878,164.625 124.387 C 164.651 121.895,164.651 117.770,164.625 115.220 C 164.599 112.670,164.578 114.708,164.578 119.750 M339.205 115.500 C 339.205 115.821,339.240 115.952,339.282 115.792 C 339.323 115.631,339.323 115.369,339.282 115.208 C 339.240 115.048,339.205 115.179,339.205 115.500 M221.667 115.552 C 221.667 115.581,221.910 115.825,222.208 116.094 L 222.750 116.583 222.260 116.042 C 221.804 115.537,221.667 115.423,221.667 115.552 M339.388 118.250 C 339.389 118.892,339.419 119.134,339.455 118.788 C 339.491 118.442,339.490 117.917,339.454 117.621 C 339.417 117.325,339.387 117.608,339.388 118.250 M225.500 119.219 C 225.500 119.248,225.744 119.491,226.042 119.760 L 226.583 120.250 226.094 119.708 C 225.638 119.203,225.500 119.090,225.500 119.219 M212.333 121.385 C 212.333 121.414,212.577 121.658,212.875 121.927 L 213.417 122.417 212.927 121.875 C 212.471 121.370,212.333 121.257,212.333 121.385 M339.388 122.417 C 339.389 123.058,339.419 123.300,339.455 122.955 C 339.491 122.609,339.490 122.084,339.454 121.788 C 339.417 121.492,339.387 121.775,339.388 122.417 M209.406 123.042 L 208.917 123.583 209.458 123.094 C 209.963 122.638,210.077 122.500,209.948 122.500 C 209.919 122.500,209.675 122.744,209.406 123.042 M229.333 122.885 C 229.333 122.914,229.577 123.158,229.875 123.427 L 230.417 123.917 229.927 123.375 C 229.471 122.870,229.333 122.757,229.333 122.885 M339.205 125.167 C 339.205 125.487,339.240 125.619,339.282 125.458 C 339.323 125.298,339.323 125.035,339.282 124.875 C 339.240 124.715,339.205 124.846,339.205 125.167 M217.500 126.417 C 217.811 126.737,218.103 127.000,218.149 127.000 C 218.195 127.000,217.978 126.737,217.667 126.417 C 217.356 126.096,217.064 125.833,217.018 125.833 C 216.972 125.833,217.189 126.096,217.500 126.417 M233.667 127.083 C 233.978 127.404,234.270 127.667,234.315 127.667 C 234.361 127.667,234.144 127.404,233.833 127.083 C 233.522 126.763,233.230 126.500,233.185 126.500 C 233.139 126.500,233.356 126.763,233.667 127.083 M204.942 127.305 C 204.687 127.588,204.669 129.802,204.708 156.597 L 204.751 185.583 204.792 156.596 C 204.830 129.893,204.855 127.586,205.109 127.305 C 205.261 127.137,205.347 127.000,205.302 127.000 C 205.256 127.000,205.094 127.137,204.942 127.305 M188.740 128.042 L 188.250 128.583 188.792 128.094 C 189.297 127.638,189.410 127.500,189.281 127.500 C 189.252 127.500,189.009 127.744,188.740 128.042 M237.417 130.667 C 237.775 131.033,238.105 131.333,238.151 131.333 C 238.197 131.333,237.941 131.033,237.583 130.667 C 237.225 130.300,236.895 130.000,236.849 130.000 C 236.803 130.000,237.059 130.300,237.417 130.667 M184.824 131.792 L 184.250 132.417 184.875 131.842 C 185.457 131.308,185.577 131.167,185.449 131.167 C 185.422 131.167,185.140 131.448,184.824 131.792 M241.250 134.333 C 241.608 134.700,241.938 135.000,241.984 135.000 C 242.030 135.000,241.775 134.700,241.417 134.333 C 241.059 133.967,240.728 133.667,240.682 133.667 C 240.637 133.667,240.892 133.967,241.250 134.333 M180.991 135.458 L 180.417 136.083 181.042 135.509 C 181.623 134.974,181.743 134.833,181.616 134.833 C 181.588 134.833,181.307 135.115,180.991 135.458 M245.167 138.083 C 245.478 138.404,245.770 138.667,245.815 138.667 C 245.861 138.667,245.644 138.404,245.333 138.083 C 245.022 137.762,244.730 137.500,244.685 137.500 C 244.639 137.500,244.856 137.762,245.167 138.083 M60.709 138.583 C 60.711 138.950,60.745 139.080,60.785 138.873 C 60.824 138.666,60.823 138.366,60.781 138.206 C 60.739 138.047,60.707 138.217,60.709 138.583 M177.242 139.042 L 176.583 139.750 177.292 139.091 C 177.681 138.729,178.000 138.410,178.000 138.383 C 178.000 138.257,177.855 138.383,177.242 139.042 M192.654 139.292 L 192.250 139.750 192.750 139.333 C 193.025 139.104,193.281 138.898,193.319 138.875 C 193.358 138.852,193.314 138.833,193.223 138.833 C 193.133 138.833,192.876 139.040,192.654 139.292 M230.206 153.375 C 230.227 161.373,230.265 165.592,230.289 162.750 C 230.404 149.244,230.405 138.833,230.292 138.833 C 230.223 138.833,230.184 145.377,230.206 153.375 M60.560 141.500 C 60.560 142.371,60.588 142.727,60.623 142.292 C 60.657 141.856,60.657 141.144,60.623 140.708 C 60.588 140.273,60.560 140.629,60.560 141.500 M233.500 141.917 C 234.091 142.512,234.611 143.000,234.657 143.000 C 234.703 143.000,234.257 142.512,233.667 141.917 C 233.076 141.321,232.555 140.833,232.510 140.833 C 232.464 140.833,232.909 141.321,233.500 141.917 M246.075 142.042 L 245.417 142.750 246.125 142.091 C 246.784 141.478,246.910 141.333,246.784 141.333 C 246.757 141.333,246.438 141.652,246.075 142.042 M188.744 143.042 L 187.917 143.917 188.792 143.090 C 189.273 142.635,189.667 142.241,189.667 142.215 C 189.667 142.090,189.512 142.229,188.744 143.042 M178.250 143.000 C 178.608 143.367,178.938 143.667,178.984 143.667 C 179.030 143.667,178.775 143.367,178.417 143.000 C 178.059 142.633,177.728 142.333,177.682 142.333 C 177.637 142.333,177.892 142.633,178.250 143.000 M60.560 145.333 C 60.560 146.204,60.588 146.560,60.623 146.125 C 60.657 145.690,60.657 144.977,60.623 144.542 C 60.588 144.106,60.560 144.462,60.560 145.333 M242.075 146.208 L 241.417 146.917 242.125 146.258 C 242.515 145.895,242.833 145.577,242.833 145.550 C 242.833 145.423,242.688 145.550,242.075 146.208 M238.417 146.667 C 238.868 147.125,239.275 147.500,239.321 147.500 C 239.367 147.500,239.035 147.125,238.583 146.667 C 238.132 146.208,237.725 145.833,237.679 145.833 C 237.633 145.833,237.965 146.208,238.417 146.667 M182.250 147.167 C 182.608 147.533,182.938 147.833,182.984 147.833 C 183.030 147.833,182.775 147.533,182.417 147.167 C 182.059 146.800,181.728 146.500,181.682 146.500 C 181.637 146.500,181.892 146.800,182.250 147.167 M183.909 147.708 L 183.250 148.417 183.958 147.758 C 184.617 147.145,184.743 147.000,184.617 147.000 C 184.590 147.000,184.271 147.319,183.909 147.708 M60.709 148.250 C 60.711 148.617,60.745 148.747,60.785 148.540 C 60.824 148.332,60.823 148.032,60.781 147.873 C 60.739 147.714,60.707 147.883,60.709 148.250 M320.740 162.208 L 320.250 162.750 320.792 162.260 C 321.297 161.804,321.410 161.667,321.281 161.667 C 321.252 161.667,321.009 161.910,320.740 162.208 M150.412 175.750 C 150.412 182.167,150.433 184.767,150.458 181.529 C 150.484 178.291,150.484 173.041,150.458 169.863 C 150.433 166.684,150.412 169.333,150.412 175.750 M164.396 166.000 C 164.396 167.054,164.423 167.485,164.456 166.958 C 164.490 166.431,164.490 165.569,164.456 165.042 C 164.423 164.515,164.396 164.946,164.396 166.000 M175.896 166.000 C 175.896 167.054,175.923 167.485,175.956 166.958 C 175.990 166.431,175.990 165.569,175.956 165.042 C 175.923 164.515,175.896 164.946,175.896 166.000 M218.730 166.000 C 218.730 167.054,218.757 167.485,218.790 166.958 C 218.823 166.431,218.823 165.569,218.790 165.042 C 218.757 164.515,218.730 164.946,218.730 166.000 M303.412 175.505 C 303.243 175.692,302.724 176.062,302.257 176.329 C 301.791 176.596,301.224 177.025,300.997 177.282 L 300.585 177.750 301.084 177.314 C 301.359 177.074,301.925 176.681,302.343 176.441 C 303.016 176.056,304.035 175.167,303.805 175.167 C 303.757 175.167,303.580 175.319,303.412 175.505 M299.792 178.019 C 299.448 178.194,299.167 178.371,299.167 178.414 C 299.167 178.536,300.054 178.132,300.327 177.886 C 300.634 177.610,300.566 177.627,299.792 178.019 M296.958 179.345 C 296.615 179.526,296.333 179.712,296.333 179.757 C 296.333 179.832,297.650 179.216,297.819 179.063 C 298.011 178.889,297.511 179.053,296.958 179.345 M295.333 180.250 C 294.921 180.471,294.643 180.655,294.715 180.659 C 294.892 180.669,296.167 180.014,296.167 179.913 C 296.167 179.803,296.174 179.800,295.333 180.250 M293.750 180.833 C 293.540 180.924,293.509 180.977,293.667 180.977 C 293.804 180.977,294.067 180.912,294.250 180.833 C 294.460 180.743,294.491 180.690,294.333 180.690 C 294.196 180.690,293.933 180.755,293.750 180.833 M292.500 181.250 C 292.179 181.374,292.029 181.477,292.167 181.480 C 292.304 181.483,292.642 181.382,292.917 181.256 C 293.560 180.961,293.261 180.957,292.500 181.250 M76.167 181.663 C 77.129 181.734,90.084 181.800,104.956 181.812 L 131.995 181.833 132.042 187.208 L 132.088 192.583 132.127 187.125 L 132.167 181.667 105.625 181.666 C 91.027 181.666,78.033 181.636,76.750 181.601 C 74.548 181.540,74.515 181.543,76.167 181.663 M254.958 181.792 C 261.490 181.816,272.177 181.816,278.708 181.792 C 285.240 181.768,279.896 181.748,266.833 181.748 C 253.771 181.748,248.427 181.768,254.958 181.792 M204.714 186.583 C 204.716 187.042,204.748 187.209,204.786 186.956 C 204.825 186.703,204.824 186.328,204.784 186.123 C 204.744 185.918,204.713 186.125,204.714 186.583 M218.915 220.917 C 218.915 239.433,218.935 246.984,218.958 237.695 C 218.982 228.406,218.982 213.256,218.958 204.028 C 218.935 194.800,218.915 202.400,218.915 220.917 M164.541 215.829 L 164.500 240.574 163.543 241.579 L 162.587 242.583 163.627 241.581 L 164.668 240.579 164.625 215.831 L 164.582 191.083 164.541 215.829 M175.905 225.833 C 175.905 227.896,175.929 228.740,175.958 227.708 C 175.987 226.677,175.987 224.990,175.958 223.958 C 175.929 222.927,175.905 223.771,175.905 225.833 M182.328 223.292 L 181.417 224.250 182.375 223.339 C 182.902 222.838,183.333 222.407,183.333 222.381 C 183.333 222.257,183.174 222.401,182.328 223.292 M230.214 223.083 C 230.216 223.542,230.248 223.709,230.286 223.456 C 230.325 223.203,230.324 222.828,230.284 222.623 C 230.244 222.418,230.213 222.625,230.214 223.083 M124.911 224.208 L 123.917 225.250 124.958 224.255 C 125.531 223.708,126.000 223.239,126.000 223.214 C 126.000 223.090,125.836 223.241,124.911 224.208 M190.833 225.250 C 191.424 225.846,191.945 226.333,191.990 226.333 C 192.036 226.333,191.591 225.846,191.000 225.250 C 190.409 224.654,189.889 224.167,189.843 224.167 C 189.797 224.167,190.243 224.654,190.833 225.250 M135.250 226.000 C 135.794 226.550,136.277 227.000,136.323 227.000 C 136.369 227.000,135.961 226.550,135.417 226.000 C 134.872 225.450,134.390 225.000,134.344 225.000 C 134.298 225.000,134.706 225.450,135.250 226.000 M177.661 227.792 L 176.750 228.750 177.708 227.839 C 178.235 227.338,178.667 226.907,178.667 226.881 C 178.667 226.757,178.507 226.901,177.661 227.792 M122.500 228.917 C 122.998 229.421,123.443 229.833,123.489 229.833 C 123.534 229.833,123.165 229.421,122.667 228.917 C 122.169 228.412,121.724 228.000,121.678 228.000 C 121.632 228.000,122.002 228.412,122.500 228.917 M191.328 229.792 L 190.417 230.750 191.375 229.839 C 191.902 229.338,192.333 228.907,192.333 228.881 C 192.333 228.757,192.174 228.901,191.328 229.792 M126.333 232.583 C 126.831 233.088,127.276 233.500,127.322 233.500 C 127.368 233.500,126.998 233.088,126.500 232.583 C 126.002 232.079,125.557 231.667,125.511 231.667 C 125.466 231.667,125.835 232.079,126.333 232.583 M187.494 233.458 L 186.583 234.417 187.542 233.506 C 188.069 233.005,188.500 232.573,188.500 232.547 C 188.500 232.424,188.341 232.568,187.494 233.458 M130.167 236.250 C 130.665 236.754,131.109 237.167,131.155 237.167 C 131.201 237.167,130.831 236.754,130.333 236.250 C 129.835 235.746,129.391 235.333,129.345 235.333 C 129.299 235.333,129.669 235.746,130.167 236.250 M183.661 237.125 L 182.750 238.083 183.708 237.172 C 184.235 236.671,184.667 236.240,184.667 236.214 C 184.667 236.090,184.507 236.235,183.661 237.125 M134.083 240.000 C 134.628 240.550,135.110 241.000,135.156 241.000 C 135.202 241.000,134.794 240.550,134.250 240.000 C 133.706 239.450,133.223 239.000,133.177 239.000 C 133.131 239.000,133.539 239.450,134.083 240.000 M179.828 240.792 L 178.917 241.750 179.875 240.839 C 180.765 239.993,180.910 239.833,180.786 239.833 C 180.760 239.833,180.329 240.265,179.828 240.792 M137.917 243.667 C 138.461 244.217,138.944 244.667,138.990 244.667 C 139.035 244.667,138.628 244.217,138.083 243.667 C 137.539 243.117,137.056 242.667,137.010 242.667 C 136.965 242.667,137.372 243.117,137.917 243.667 M176.078 244.375 L 175.083 245.417 176.125 244.422 C 177.093 243.498,177.243 243.333,177.120 243.333 C 177.094 243.333,176.625 243.802,176.078 244.375 M153.500 243.713 C 153.500 243.738,154.081 244.319,154.792 245.004 L 156.083 246.250 154.838 244.958 C 153.680 243.759,153.500 243.591,153.500 243.713 M204.536 249.865 C 204.516 252.954,204.556 255.515,204.625 255.558 C 204.694 255.600,204.731 253.974,204.708 251.943 C 204.627 244.934,204.572 244.269,204.536 249.865 M158.925 245.992 C 158.241 246.682,157.788 247.003,157.430 247.048 L 156.917 247.113 157.421 247.140 C 157.838 247.162,158.115 246.977,159.000 246.083 C 159.591 245.487,160.036 245.000,159.990 245.000 C 159.944 245.000,159.465 245.446,158.925 245.992 M141.750 247.333 C 142.294 247.883,142.777 248.333,142.823 248.333 C 142.869 248.333,142.461 247.883,141.917 247.333 C 141.372 246.783,140.890 246.333,140.844 246.333 C 140.798 246.333,141.206 246.783,141.750 247.333 M172.245 248.042 L 171.250 249.083 172.292 248.089 C 173.259 247.164,173.410 247.000,173.286 247.000 C 173.261 247.000,172.792 247.469,172.245 248.042 M145.500 250.917 C 146.091 251.512,146.611 252.000,146.657 252.000 C 146.703 252.000,146.257 251.512,145.667 250.917 C 145.076 250.321,144.555 249.833,144.510 249.833 C 144.464 249.833,144.909 250.321,145.500 250.917 M168.411 251.708 L 167.417 252.750 168.458 251.755 C 169.031 251.208,169.500 250.739,169.500 250.714 C 169.500 250.590,169.336 250.741,168.411 251.708 M149.250 254.500 C 149.794 255.050,150.277 255.500,150.323 255.500 C 150.369 255.500,149.961 255.050,149.417 254.500 C 148.872 253.950,148.390 253.500,148.344 253.500 C 148.298 253.500,148.706 253.950,149.250 254.500 M164.578 255.375 L 163.583 256.417 164.625 255.422 C 165.198 254.875,165.667 254.406,165.667 254.380 C 165.667 254.257,165.502 254.407,164.578 255.375 M195.958 255.958 C 197.448 255.986,199.885 255.986,201.375 255.958 C 202.865 255.930,201.646 255.908,198.667 255.908 C 195.688 255.908,194.469 255.930,195.958 255.958 M208.303 255.958 C 210.257 255.985,213.407 255.985,215.303 255.958 C 217.199 255.931,215.600 255.910,211.750 255.910 C 207.900 255.910,206.349 255.932,208.303 255.958 M221.698 255.958 C 223.227 255.985,225.777 255.986,227.364 255.958 C 228.951 255.931,227.700 255.908,224.583 255.908 C 221.467 255.908,220.168 255.931,221.698 255.958 M153.083 258.167 C 153.628 258.717,154.110 259.167,154.156 259.167 C 154.202 259.167,153.794 258.717,153.250 258.167 C 152.706 257.617,152.223 257.167,152.177 257.167 C 152.131 257.167,152.539 257.617,153.083 258.167 M161.170 258.580 L 160.608 259.160 157.429 259.209 L 154.250 259.258 157.425 259.295 L 160.599 259.333 161.250 258.667 C 161.608 258.300,161.863 258.000,161.817 258.000 C 161.770 258.000,161.479 258.261,161.170 258.580 " stroke="none" fill="#8b877a" fill-rule="evenodd"></path></g></svg>